<?xml version="1.0" standalone="no"?>
<!DOCTYPE svg PUBLIC "-//W3C//DTD SVG 1.1//EN" "http://www.w3.org/Graphics/SVG/1.1/DTD/svg11.dtd">
<svg viewBox="0 0 783.000000 476.000000" version="1.1" xmlns="http://www.w3.org/2000/svg" xmlns:xlink="http://www.w3.org/1999/xlink">
	<rect x="0" y="0" width="783" height="476" fill="white" />
	<text x="610.75" y="235.6" fill="rgb(0,0,255)" dominant-baseline="central" font-size="14" font-family="Arial" text-anchor="middle">Modifiable model</text>
	<text x="403.35" y="52.6" fill="rgb(0,0,255)" dominant-baseline="central" font-size="17" font-family="Arial" text-anchor="middle">Switched model</text>
	<rect fill="rgb(255,255,255)" stroke="rgb(0,0,255)" stroke-opacity="1" x="382" y="77" width="61" height="61"/>
	<polyline fill="none" stroke="rgb(0,0,255)" stroke-opacity="1" points="382.000000,138.000000 443.000000,77.000000"/>
	<text x="412.5" y="107.5" fill="rgb(0,0,255)" dominant-baseline="central" font-size="18" font-family="Arial" text-anchor="middle">1-ph</text>
	<polyline fill="none" stroke="rgb(0,0,255)" stroke-opacity="1" points="391.150000,92.250000 409.450000,92.250000"/>
	<polyline fill="none" stroke="rgb(0,0,255)" stroke-opacity="1" points="391.150000,86.150000 409.450000,86.150000"/>
	<polyline fill="none" stroke="rgb(0,0,255)" stroke-opacity="1" points="415.550000,128.850000 433.850000,128.850000"/>
	<polyline fill="none" stroke="rgb(0,0,255)" stroke-opacity="1" points="415.550000,122.750000 417.685000,121.225000 418.115050,120.950500 418.551200,120.737000 418.993450,120.584500 419.441800,120.493000 419.896250,120.462500 420.356800,120.493000 420.823450,120.584500 421.296200,120.737000 421.775050,120.950500 422.260000,121.225000 422.260000,121.225000 422.260000,121.225000 422.748000,121.530000 423.236000,121.835000 423.724000,122.140000 424.212000,122.445000 424.700000,122.750000 425.188000,123.055000 425.676000,123.360000 426.164000,123.665000 426.652000,123.970000 427.140000,124.275000 427.140000,124.275000 427.140000,124.275000 427.624950,124.549500 428.103800,124.763000 428.576550,124.915500 429.043200,125.007000 429.503750,125.037500 429.958200,125.007000 430.406550,124.915500 430.848800,124.763000 431.284950,124.549500 431.715000,124.275000 431.715000,124.275000 433.850000,122.750000"/>
	<polyline fill="none" stroke="rgb(0,0,255)" stroke-opacity="1" points="290.500000,80.050000 290.500000,104.450000"/>
	<polyline fill="none" stroke="rgb(0,0,255)" stroke-opacity="1" points="308.800000,104.450000 272.200000,104.450000"/>
	<polyline fill="none" stroke="rgb(0,0,255)" stroke-opacity="1" points="299.650000,107.500000 281.350000,107.500000"/>
	<polyline fill="none" stroke="rgb(0,0,255)" stroke-opacity="1" points="290.500000,107.500000 290.500000,134.950000"/>
	<text x="262.44" y="107.5" fill="rgb(0,0,255)" dominant-baseline="central" transform="rotate(-270 262.44,107.5)" font-size="10" font-family="Arial" text-anchor="middle">DCsw=580</text>
	<text x="298.125" y="86.15" fill="rgb(0,0,255)" dominant-baseline="central" transform="rotate(-270 298.125,86.15)" font-size="15" font-family="Arial" text-anchor="middle">+</text>
	<text x="298.125" y="128.85" fill="rgb(0,0,255)" dominant-baseline="central" transform="rotate(-270 298.125,128.85)" font-size="15" font-family="Arial" text-anchor="middle">-</text>
	<ellipse fill="rgb(255,255,255)" stroke="rgb(0,0,255)" stroke-opacity="1" cx="534.5" cy="168.5" rx="15.25" ry="15.25"/>
	<text x="565" y="168.5" fill="rgb(0,0,255)" dominant-baseline="central" transform="rotate(-270 565,168.5)" font-size="10" font-family="Arial" text-anchor="middle">ACsw</text>
	<polyline fill="none" stroke="rgb(0,0,255)" stroke-opacity="1" points="534.500000,141.050000 534.500000,195.950000"/>
	<text x="542.125" y="147.15" fill="rgb(0,0,255)" dominant-baseline="central" transform="rotate(-270 542.125,147.15)" font-size="15" font-family="Arial" text-anchor="middle">+</text>
	<text x="542.125" y="189.85" fill="rgb(0,0,255)" dominant-baseline="central" transform="rotate(-270 542.125,189.85)" font-size="15" font-family="Arial" text-anchor="middle">-</text>
	<polyline fill="none" stroke="rgb(192,192,192)" stroke-opacity="1" points="534.500000,148.370000 543.619500,151.359000 548.682500,153.311000 552.220500,155.019000 554.386000,156.513500 555.606000,158.038500 555.789000,159.533000 554.935000,161.027500 553.105000,162.522000 550.360000,164.047000 546.273000,165.755000 540.173000,167.896100 526.295500,172.400950 521.080000,174.325500 517.359000,176.064000 514.980000,177.558500 513.577000,179.053000 513.150000,180.547500 513.790500,182.072500 515.437500,183.567000 517.999500,185.061500 521.903500,186.769500 527.881500,188.935000 534.500000,191.070000"/>
	<ellipse fill="transparent" stroke="rgb(0,0,255)" stroke-opacity="1" cx="534.5" cy="32.775" rx="4.575" ry="4.575"/>
	<ellipse fill="transparent" stroke="rgb(0,0,255)" stroke-opacity="1" cx="534.5" cy="41.925" rx="4.575" ry="4.575"/>
	<ellipse fill="transparent" stroke="rgb(0,0,255)" stroke-opacity="1" cx="534.5" cy="51.075" rx="4.575" ry="4.575"/>
	<ellipse fill="transparent" stroke="rgb(0,0,255)" stroke-opacity="1" cx="534.5" cy="60.225" rx="4.575" ry="4.575"/>
	<rect fill="rgb(255,255,255)" stroke="rgb(255,255,255)" stroke-opacity="1" x="525.35" y="28.2" width="9.15" height="36.6"/>
	<polyline fill="none" stroke="rgb(0,0,255)" stroke-opacity="1" points="534.500000,64.800000 534.500000,73.950000"/>
	<polyline fill="none" stroke="rgb(0,0,255)" stroke-opacity="1" points="534.500000,19.050000 534.500000,28.200000"/>
	<text x="511.015" y="47.415" fill="rgb(0,0,0)" dominant-baseline="central" transform="rotate(-270 511.015,47.415)" font-size="10" font-family="Arial" text-anchor="middle">L=1e-3</text>
	<text x="552.495" y="45.89" fill="rgb(0,0,255)" dominant-baseline="central" transform="rotate(-270 552.495,45.89)" font-size="10" font-family="Arial" text-anchor="middle">Lsw</text>
	<rect fill="rgb(255,255,255)" stroke="rgb(0,0,127)" stroke-opacity="1" x="107.5" y="400.3" width="61" height="61"/>
	<text x="138" y="470.45" fill="rgb(0,0,255)" dominant-baseline="central" font-size="12" font-family="Arial" text-anchor="middle">pLL</text>
	<polyline fill="none" stroke="rgb(0,0,255)" stroke-opacity="1" points="116.650000,430.800000 119.700000,439.950000 120.310000,441.597000 120.920000,442.878000 121.530000,443.793000 122.140000,444.342000 122.750000,444.525000 123.360000,444.342000 123.970000,443.793000 124.580000,442.878000 125.190000,441.597000 125.800000,439.950000 125.800000,439.950000 125.800000,439.950000 126.410000,438.120000 127.020000,436.290000 127.630000,434.460000 128.240000,432.630000 128.850000,430.800000 129.460000,428.970000 130.070000,427.140000 130.680000,425.310000 131.290000,423.480000 131.900000,421.650000 131.900000,421.650000 131.900000,421.650000 132.510000,420.003000 133.120000,418.722000 133.730000,417.807000 134.340000,417.258000 134.950000,417.075000 135.560000,417.258000 136.170000,417.807000 136.780000,418.722000 137.390000,420.003000 138.000000,421.650000 138.000000,421.650000 138.000000,421.650000 138.610000,423.480000 139.220000,425.310000 139.830000,427.140000 140.440000,428.970000 141.050000,430.800000 141.660000,432.630000 142.270000,434.460000 142.880000,436.290000 143.490000,438.120000 144.100000,439.950000 144.100000,439.950000 144.100000,439.950000 144.710000,441.597000 145.320000,442.878000 145.930000,443.793000 146.540000,444.342000 147.150000,444.525000 147.760000,444.342000 148.370000,443.793000 148.980000,442.878000 149.590000,441.597000 150.200000,439.950000 150.200000,439.950000 150.200000,439.950000 150.810000,438.120000 151.420000,436.290000 152.030000,434.460000 152.640000,432.630000 153.250000,430.800000 153.860000,428.970000 154.470000,427.140000 155.080000,425.310000 155.690000,423.480000 156.300000,421.650000 156.300000,421.650000 156.300000,421.650000 156.910000,420.003000 157.520000,418.722000 158.130000,417.807000 158.740000,417.258000 159.350000,417.075000 159.960000,417.258000 160.570000,417.807000 161.180000,418.722000 161.790000,420.003000 162.400000,421.650000 162.400000,421.650000 165.450000,430.800000"/>
	<polyline fill="none" stroke="rgb(255,0,0)" stroke-opacity="1" points="110.550000,430.800000 114.515000,439.950000 115.298850,441.597000 116.064400,442.878000 116.811650,443.793000 117.540600,444.342000 118.251250,444.525000 118.943600,444.342000 119.617650,443.793000 120.273400,442.878000 120.910850,441.597000 121.530000,439.950000 121.530000,439.950000 121.530000,439.950000 122.149150,438.120000 122.786600,436.290000 123.442350,434.460000 124.116400,432.630000 124.808750,430.800000 125.519400,428.970000 126.248350,427.140000 126.995600,425.310000 127.761150,423.480000 128.545000,421.650000 128.545000,421.650000 128.545000,421.650000 129.328850,420.003000 130.094400,418.722000 130.841650,417.807000 131.570600,417.258000 132.281250,417.075000 132.973600,417.258000 133.647650,417.807000 134.303400,418.722000 134.940850,420.003000 135.560000,421.650000 135.560000,421.650000 135.560000,421.650000 136.170000,423.480000 136.780000,425.310000 137.390000,427.140000 138.000000,428.970000 138.610000,430.800000 139.220000,432.630000 139.830000,434.460000 140.440000,436.290000 141.050000,438.120000 141.660000,439.950000 141.660000,439.950000 141.660000,439.950000 142.273050,441.597000 142.892200,442.878000 143.517450,443.793000 144.148800,444.342000 144.786250,444.525000 145.429800,444.342000 146.079450,443.793000 146.735200,442.878000 147.397050,441.597000 148.065000,439.950000 148.065000,439.950000 148.065000,439.950000 148.732950,438.120000 149.394800,436.290000 150.050550,434.460000 150.700200,432.630000 151.343750,430.800000 151.981200,428.970000 152.612550,427.140000 153.237800,425.310000 153.856950,423.480000 154.470000,421.650000 154.470000,421.650000 154.470000,421.650000 155.086100,420.003000 155.714400,418.722000 156.354900,417.807000 157.007600,417.258000 157.672500,417.075000 158.349600,417.258000 159.038900,417.807000 159.740400,418.722000 160.454100,420.003000 161.180000,421.650000 161.180000,421.650000 164.840000,430.800000"/>
	<rect fill="rgb(255,255,255)" stroke="rgb(0,0,127)" stroke-opacity="1" x="211.2" y="400.3" width="61" height="61"/>
	<text x="241.7" y="470.45" fill="rgb(0,0,255)" dominant-baseline="central" font-size="12" font-family="Arial" text-anchor="middle">sin</text>
	<polygon fill="rgb(192,192,192)" stroke="rgb(192,192,192)" stroke-opacity="1" points="217.300000,458.250000 214.860000,451.540000 219.740000,451.540000 217.300000,458.250000"/>
	<polyline fill="none" stroke="rgb(192,192,192)" stroke-opacity="1" points="217.300000,406.400000 217.300000,451.540000"/>
	<polyline fill="none" stroke="rgb(192,192,192)" stroke-opacity="1" points="214.250000,430.800000 262.440000,430.800000"/>
	<polygon fill="rgb(192,192,192)" stroke="rgb(192,192,192)" stroke-opacity="1" points="269.150000,430.800000 262.440000,433.240000 262.440000,428.360000 269.150000,430.800000"/>
	<polyline fill="none" stroke="rgb(0,0,0)" stroke-opacity="1" points="217.300000,455.200000 218.154000,454.910250 218.324953,454.846353 218.496210,454.770560 218.667772,454.682872 218.839640,454.583290 219.011812,454.471812 219.184290,454.348440 219.357072,454.213172 219.530160,454.066010 219.703552,453.906952 219.877250,453.736000 219.877250,453.736000 219.877250,453.736000 220.050948,453.553763 220.224340,453.360850 220.397427,453.157262 220.570210,452.943000 220.742687,452.718062 220.914860,452.482450 221.086727,452.236162 221.258290,451.979200 221.429547,451.711562 221.600500,451.433250 221.600500,451.433250 221.600500,451.433250 221.772520,451.141975 221.946980,450.835450 222.123880,450.513675 222.303220,450.176650 222.485000,449.824375 222.669220,449.456850 222.855880,449.074075 223.044980,448.676050 223.236520,448.262775 223.430500,447.834250 223.430500,447.834250 223.430500,447.834250 223.628293,447.386205 223.831270,446.914370 224.039433,446.418745 224.252780,445.899330 224.471313,445.356125 224.695030,444.789130 224.923932,444.198345 225.158020,443.583770 225.397292,442.945405 225.641750,442.283250 225.641750,442.283250 225.641750,442.283250 225.905880,441.552775 226.204170,440.709450 226.536620,439.753275 226.903230,438.684250 227.304000,437.502375 227.738930,436.207650 228.208020,434.800075 228.711270,433.279650 229.248680,431.646375 229.820250,429.900250 229.820250,429.900250 229.820250,429.900250 230.390447,428.158547 230.923740,426.538540 231.420127,425.040227 231.879610,423.663610 232.302187,422.408687 232.687860,421.275460 233.036627,420.263927 233.348490,419.374090 233.623447,418.605947 233.861500,417.959500 233.861500,417.959500 233.861500,417.959500 234.079880,417.382440 234.295820,416.822460 234.509320,416.279560 234.720380,415.753740 234.929000,415.245000 235.135180,414.753340 235.338920,414.278760 235.540220,413.821260 235.739080,413.380840 235.935500,412.957500 235.935500,412.957500 235.935500,412.957500 236.129480,412.550478 236.321020,412.159010 236.510120,411.783097 236.696780,411.422740 236.881000,411.077937 237.062780,410.748690 237.242120,410.434997 237.419020,410.136860 237.593480,409.854277 237.765500,409.587250 237.765500,409.587250 237.765500,409.587250 237.936422,409.333337 238.107588,409.090100 238.278998,408.857537 238.450652,408.635650 238.622550,408.424437 238.794692,408.223900 238.967078,408.034037 239.139708,407.854850 239.312582,407.686337 239.485700,407.528500 239.485700,407.528500 239.485700,407.528500 239.658864,407.381948 239.831875,407.247290 240.004734,407.124527 240.177440,407.013660 240.349994,406.914687 240.522395,406.827610 240.694644,406.752427 240.866740,406.689140 241.038684,406.637747 241.210475,406.598250 241.210475,406.598250 241.210475,406.598250 241.382175,406.570648 241.553844,406.554940 241.725483,406.551127 241.897091,406.559210 242.068669,406.579187 242.240216,406.611060 242.411733,406.654827 242.583219,406.710490 242.754675,406.778047 242.926100,406.857500 242.926100,406.857500 242.926100,406.857500 243.097586,406.948543 243.269225,407.050870 243.441016,407.164482 243.612960,407.289380 243.785056,407.425563 243.957305,407.573030 244.129706,407.731783 244.302260,407.901820 244.474966,408.083143 244.647825,408.275750 244.647825,408.275750 244.647825,408.275750 244.820653,408.479337 244.993268,408.693600 245.165669,408.918537 245.337857,409.154150 245.509831,409.400437 245.681592,409.657400 245.853139,409.925037 246.024473,410.203350 246.195593,410.492337 246.366500,410.792000 246.366500,410.792000 246.366500,410.792000 246.538520,411.104472 246.712980,411.431890 246.889880,411.774252 247.069220,412.131560 247.251000,412.503812 247.435220,412.891010 247.621880,413.293152 247.810980,413.710240 248.002520,414.142272 248.196500,414.589250 248.196500,414.589250 248.196500,414.589250 248.394293,415.055595 248.597270,415.545730 248.805432,416.059655 249.018780,416.597370 249.237313,417.158875 249.461030,417.744170 249.689933,418.353255 249.924020,418.986130 250.163293,419.642795 250.407750,420.323250 250.407750,420.323250 250.407750,420.323250 250.669440,421.063790 250.960410,421.900710 251.280660,422.834010 251.630190,423.863690 252.009000,424.989750 252.417090,426.212190 252.854460,427.531010 253.321110,428.946210 253.817040,430.457790 254.342250,432.065750 254.342250,432.065750 254.342250,432.065750 254.866087,433.668677 255.357900,435.165160 255.817687,436.555197 256.245450,437.838790 256.641188,439.015937 257.004900,440.086640 257.336587,441.050897 257.636250,441.908710 257.903888,442.660077 258.139500,443.305000 258.139500,443.305000 258.139500,443.305000 258.357880,443.888312 258.573820,444.454850 258.787320,445.004612 258.998380,445.537600 259.207000,446.053812 259.413180,446.553250 259.616920,447.035912 259.818220,447.501800 260.017080,447.950912 260.213500,448.383250 260.213500,448.383250 260.213500,448.383250 260.407480,448.799422 260.599020,449.200040 260.788120,449.585102 260.974780,449.954610 261.159000,450.308562 261.340780,450.646960 261.520120,450.969802 261.697020,451.277090 261.871480,451.568822 262.043500,451.845000 262.043500,451.845000 262.043500,451.845000 262.214452,452.107910 262.385710,452.359840 262.557273,452.600790 262.729140,452.830760 262.901313,453.049750 263.073790,453.257760 263.246572,453.454790 263.419660,453.640840 263.593053,453.815910 263.766750,453.980000 263.766750,453.980000 263.766750,453.980000 263.939228,454.132805 264.108960,454.274020 264.275947,454.403645 264.440190,454.521680 264.601687,454.628125 264.760440,454.722980 264.916448,454.806245 265.069710,454.877920 265.220227,454.938005 265.368000,454.986500 265.368000,454.986500 266.100000,455.200000"/>
	<text x="241.7" y="448.49" fill="rgb(192,192,192)" dominant-baseline="central" font-size="15" font-family="Arial" text-anchor="middle">cos</text>
	<rect fill="rgb(255,255,255)" stroke="rgb(0,0,127)" stroke-opacity="1" x="321" y="382" width="61" height="61"/>
	<text x="351.5" y="452.15" fill="rgb(0,0,255)" dominant-baseline="central" font-size="12" font-family="Arial" text-anchor="middle">add</text>
	<text x="351.5" y="452.15" fill="rgb(0,0,255)" dominant-baseline="central" font-size="12" font-family="Arial" text-anchor="middle">add</text>
	<polyline fill="none" stroke="rgb(0,0,127)" stroke-opacity="1" points="321.000000,430.800000 328.930000,419.820000 338.080000,419.820000"/>
	<polyline fill="none" stroke="rgb(0,0,127)" stroke-opacity="1" points="321.000000,394.200000 328.930000,403.960000 338.690000,403.960000"/>
	<ellipse fill="transparent" stroke="rgb(0,0,127)" stroke-opacity="1" cx="351.5" cy="412.5" rx="15.25" ry="15.25"/>
	<polyline fill="none" stroke="rgb(0,0,127)" stroke-opacity="1" points="366.750000,412.500000 382.000000,412.500000"/>
	<text x="351.5" y="412.5" fill="rgb(0,0,0)" dominant-baseline="central" font-size="21" font-family="Arial" text-anchor="middle">+</text>
	<text x="337.012" y="434.46" fill="rgb(0,0,0)" dominant-baseline="central" font-size="10" font-family="Arial" text-anchor="middle">580/580/2</text>
	<text x="337.012" y="390.54" fill="rgb(0,0,0)" dominant-baseline="central" font-size="12" font-family="Arial" text-anchor="middle">1</text>
	<rect fill="rgb(255,255,255)" stroke="rgb(0,0,127)" stroke-opacity="1" x="107.5" y="302.7" width="61" height="61"/>
	<text x="138" y="372.85" fill="rgb(0,0,255)" dominant-baseline="central" font-size="12" font-family="Arial" text-anchor="middle">const</text>
	<polyline fill="none" stroke="rgb(192,192,192)" stroke-opacity="1" points="113.600000,353.940000 113.600000,308.800000"/>
	<polygon fill="rgb(192,192,192)" stroke="rgb(192,192,192)" stroke-opacity="1" points="113.600000,360.650000 111.160000,353.940000 116.040000,353.940000 113.600000,360.650000"/>
	<polyline fill="none" stroke="rgb(192,192,192)" stroke-opacity="1" points="110.550000,311.850000 163.010000,311.850000"/>
	<polygon fill="rgb(192,192,192)" stroke="rgb(192,192,192)" stroke-opacity="1" points="165.450000,311.850000 158.740000,314.290000 158.740000,309.410000 165.450000,311.850000"/>
	<polyline fill="none" stroke="rgb(0,0,0)" stroke-opacity="1" points="113.600000,333.200000 162.400000,333.200000"/>
	<text x="138" y="293.55" fill="rgb(0,0,0)" dominant-baseline="central" font-size="12" font-family="Arial" text-anchor="middle">k=0.5</text>
	<rect fill="rgb(255,255,255)" stroke="rgb(0,0,255)" stroke-opacity="1" x="525.35" y="86.15" width="18.3" height="42.7"/>
	<polyline fill="none" stroke="rgb(0,0,255)" stroke-opacity="1" points="534.500000,80.050000 534.500000,86.150000"/>
	<polyline fill="none" stroke="rgb(0,0,255)" stroke-opacity="1" points="534.500000,128.850000 534.500000,134.950000"/>
	<text x="517.42" y="107.195" fill="rgb(0,0,0)" dominant-baseline="central" transform="rotate(-270 517.42,107.195)" font-size="10" font-family="Arial" text-anchor="middle">R=1e-2</text>
	<text x="554.935" y="106.89" fill="rgb(0,0,255)" dominant-baseline="central" transform="rotate(-270 554.935,106.89)" font-size="10" font-family="Arial" text-anchor="middle">Rsw</text>
	<rect fill="rgb(255,255,255)" stroke="rgb(0,0,255)" stroke-opacity="1" x="595.5" y="260" width="61" height="61"/>
	<polyline fill="none" stroke="rgb(0,0,255)" stroke-opacity="1" points="595.500000,321.000000 656.500000,260.000000"/>
	<text x="626" y="290.5" fill="rgb(0,0,255)" dominant-baseline="central" font-size="18" font-family="Arial" text-anchor="middle">1-ph</text>
	<polyline fill="none" stroke="rgb(0,0,255)" stroke-opacity="1" points="604.650000,275.250000 622.950000,275.250000"/>
	<polyline fill="none" stroke="rgb(0,0,255)" stroke-opacity="1" points="604.650000,269.150000 622.950000,269.150000"/>
	<polyline fill="none" stroke="rgb(0,0,255)" stroke-opacity="1" points="629.050000,311.850000 647.350000,311.850000"/>
	<polyline fill="none" stroke="rgb(0,0,255)" stroke-opacity="1" points="629.050000,305.750000 631.185000,304.225000 631.615050,303.950500 632.051200,303.737000 632.493450,303.584500 632.941800,303.493000 633.396250,303.462500 633.856800,303.493000 634.323450,303.584500 634.796200,303.737000 635.275050,303.950500 635.760000,304.225000 635.760000,304.225000 635.760000,304.225000 636.248000,304.530000 636.736000,304.835000 637.224000,305.140000 637.712000,305.445000 638.200000,305.750000 638.688000,306.055000 639.176000,306.360000 639.664000,306.665000 640.152000,306.970000 640.640000,307.275000 640.640000,307.275000 640.640000,307.275000 641.124950,307.549500 641.603800,307.763000 642.076550,307.915500 642.543200,308.007000 643.003750,308.037500 643.458200,308.007000 643.906550,307.915500 644.348800,307.763000 644.784950,307.549500 645.215000,307.275000 645.215000,307.275000 647.350000,305.750000"/>
	<ellipse fill="transparent" stroke="rgb(0,0,255)" stroke-opacity="1" cx="748" cy="215.775" rx="4.575" ry="4.575"/>
	<ellipse fill="transparent" stroke="rgb(0,0,255)" stroke-opacity="1" cx="748" cy="224.925" rx="4.575" ry="4.575"/>
	<ellipse fill="transparent" stroke="rgb(0,0,255)" stroke-opacity="1" cx="748" cy="234.075" rx="4.575" ry="4.575"/>
	<ellipse fill="transparent" stroke="rgb(0,0,255)" stroke-opacity="1" cx="748" cy="243.225" rx="4.575" ry="4.575"/>
	<rect fill="rgb(255,255,255)" stroke="rgb(255,255,255)" stroke-opacity="1" x="738.85" y="211.2" width="9.15" height="36.6"/>
	<polyline fill="none" stroke="rgb(0,0,255)" stroke-opacity="1" points="748.000000,247.800000 748.000000,256.950000"/>
	<polyline fill="none" stroke="rgb(0,0,255)" stroke-opacity="1" points="748.000000,202.050000 748.000000,211.200000"/>
	<text x="724.515" y="230.415" fill="rgb(0,0,0)" dominant-baseline="central" transform="rotate(-270 724.515,230.415)" font-size="10" font-family="Arial" text-anchor="middle">L=1e-3</text>
	<text x="765.995" y="228.89" fill="rgb(0,0,255)" dominant-baseline="central" transform="rotate(-270 765.995,228.89)" font-size="10" font-family="Arial" text-anchor="middle">Lav</text>
	<rect fill="rgb(255,255,255)" stroke="rgb(0,0,255)" stroke-opacity="1" x="738.85" y="269.15" width="18.3" height="42.7"/>
	<polyline fill="none" stroke="rgb(0,0,255)" stroke-opacity="1" points="748.000000,263.050000 748.000000,269.150000"/>
	<polyline fill="none" stroke="rgb(0,0,255)" stroke-opacity="1" points="748.000000,311.850000 748.000000,317.950000"/>
	<text x="730.92" y="290.195" fill="rgb(0,0,0)" dominant-baseline="central" transform="rotate(-270 730.92,290.195)" font-size="10" font-family="Arial" text-anchor="middle">R=1e-2</text>
	<text x="768.435" y="289.89" fill="rgb(0,0,255)" dominant-baseline="central" transform="rotate(-270 768.435,289.89)" font-size="10" font-family="Arial" text-anchor="middle">Rav</text>
	<polyline fill="none" stroke="rgb(0,0,255)" stroke-opacity="1" points="272.200000,153.250000 308.800000,153.250000"/>
	<polyline fill="none" stroke="rgb(0,0,255)" stroke-opacity="1" points="278.300000,159.350000 302.700000,159.350000"/>
	<polyline fill="none" stroke="rgb(0,0,255)" stroke-opacity="1" points="284.400000,165.450000 296.600000,165.450000"/>
	<polyline fill="none" stroke="rgb(0,0,255)" stroke-opacity="1" points="290.500000,141.050000 290.500000,153.250000"/>
	<text x="292.33" y="180.395" fill="rgb(0,0,255)" dominant-baseline="central" font-size="12" font-family="Arial" text-anchor="middle">gsw</text>
	<rect fill="rgb(235,235,235)" stroke="rgb(0,0,0)" stroke-opacity="1" x="16" y="418.6" width="61" height="24.4"/>
	<rect fill="rgb(172,168,153)" stroke="none" x="15.1467" y="417.747" width="0.853333" height="25.2533"/>
	<rect fill="rgb(172,168,153)" stroke="none" x="15.1467" y="443" width="61.8533" height="0.853333"/>
	<rect fill="rgb(172,168,153)" stroke="none" x="77" y="418.6" width="0.853333" height="25.2533"/>
	<rect fill="rgb(172,168,153)" stroke="none" x="16" y="417.747" width="61.8533" height="0.853333"/>
	<rect fill="rgb(255,255,255)" stroke="none" x="16" y="418.6" width="1.28" height="24.4"/>
	<rect fill="rgb(255,255,255)" stroke="none" x="16" y="418.6" width="61" height="1.28"/>
	<rect fill="rgb(113,111,100)" stroke="none" x="76.1467" y="418.6" width="0.853333" height="24.4"/>
	<rect fill="rgb(113,111,100)" stroke="none" x="16" y="442.147" width="61" height="0.853333"/>
	<rect fill="rgb(172,168,153)" stroke="none" x="75.2933" y="419.453" width="0.853333" height="22.6933"/>
	<rect fill="rgb(172,168,153)" stroke="none" x="16.8533" y="441.293" width="59.2933" height="0.853333"/>
	<text x="46.5" y="430.8" fill="rgb(0,0,0)" dominant-baseline="central" font-size="10" font-family="Arial" text-anchor="middle">ACsw.v</text>
	<text x="44.975" y="409.45" fill="rgb(0,0,255)" dominant-baseline="central" font-size="12" font-family="Arial" text-anchor="middle">VacSense</text>
	<ellipse fill="rgb(255,255,255)" stroke="rgb(0,0,255)" stroke-opacity="1" cx="748" cy="351.5" rx="15.25" ry="15.25"/>
	<text x="778.5" y="351.5" fill="rgb(0,0,255)" dominant-baseline="central" transform="rotate(-270 778.5,351.5)" font-size="10" font-family="Arial" text-anchor="middle">ACav</text>
	<polyline fill="none" stroke="rgb(0,0,255)" stroke-opacity="1" points="748.000000,324.050000 748.000000,378.950000"/>
	<text x="755.625" y="330.15" fill="rgb(0,0,255)" dominant-baseline="central" transform="rotate(-270 755.625,330.15)" font-size="15" font-family="Arial" text-anchor="middle">+</text>
	<text x="755.625" y="372.85" fill="rgb(0,0,255)" dominant-baseline="central" transform="rotate(-270 755.625,372.85)" font-size="15" font-family="Arial" text-anchor="middle">-</text>
	<polyline fill="none" stroke="rgb(192,192,192)" stroke-opacity="1" points="748.000000,331.370000 757.119500,334.359000 762.182500,336.311000 765.720500,338.019000 767.886000,339.513500 769.106000,341.038500 769.289000,342.533000 768.435000,344.027500 766.605000,345.522000 763.860000,347.047000 759.773000,348.755000 753.673000,350.896100 739.795500,355.400950 734.580000,357.325500 730.859000,359.064000 728.480000,360.558500 727.077000,362.053000 726.650000,363.547500 727.290500,365.072500 728.937500,366.567000 731.499500,368.061500 735.403500,369.769500 741.381500,371.935000 748.000000,374.070000"/>
	<polyline fill="none" stroke="rgb(0,0,255)" stroke-opacity="1" points="504.000000,263.050000 504.000000,287.450000"/>
	<polyline fill="none" stroke="rgb(0,0,255)" stroke-opacity="1" points="522.300000,287.450000 485.700000,287.450000"/>
	<polyline fill="none" stroke="rgb(0,0,255)" stroke-opacity="1" points="513.150000,290.500000 494.850000,290.500000"/>
	<polyline fill="none" stroke="rgb(0,0,255)" stroke-opacity="1" points="504.000000,290.500000 504.000000,317.950000"/>
	<text x="475.94" y="290.5" fill="rgb(0,0,255)" dominant-baseline="central" transform="rotate(-270 475.94,290.5)" font-size="10" font-family="Arial" text-anchor="middle">DCav=580</text>
	<text x="511.625" y="269.15" fill="rgb(0,0,255)" dominant-baseline="central" transform="rotate(-270 511.625,269.15)" font-size="15" font-family="Arial" text-anchor="middle">+</text>
	<text x="511.625" y="311.85" fill="rgb(0,0,255)" dominant-baseline="central" transform="rotate(-270 511.625,311.85)" font-size="15" font-family="Arial" text-anchor="middle">-</text>
	<polyline fill="none" stroke="rgb(0,0,255)" stroke-opacity="1" points="485.700000,336.250000 522.300000,336.250000"/>
	<polyline fill="none" stroke="rgb(0,0,255)" stroke-opacity="1" points="491.800000,342.350000 516.200000,342.350000"/>
	<polyline fill="none" stroke="rgb(0,0,255)" stroke-opacity="1" points="497.900000,348.450000 510.100000,348.450000"/>
	<polyline fill="none" stroke="rgb(0,0,255)" stroke-opacity="1" points="504.000000,324.050000 504.000000,336.250000"/>
	<text x="505.83" y="363.395" fill="rgb(0,0,255)" dominant-baseline="central" font-size="12" font-family="Arial" text-anchor="middle">gav</text>
	<rect fill="rgb(255,255,255)" stroke="rgb(0,0,127)" stroke-opacity="1" x="382" y="260" width="61" height="61"/>
	<text x="372.85" y="290.5" fill="rgb(0,0,255)" dominant-baseline="central" transform="rotate(-90 372.85,290.5)" font-size="10" font-family="Arial" text-anchor="middle">switchingPWM</text>
	<polyline fill="none" stroke="rgb(255,0,0)" stroke-opacity="1" points="400.300000,314.900000 400.300000,266.100000"/>
	<polyline fill="none" stroke="rgb(0,0,255)" stroke-opacity="1" points="455.200000,306.360000"/>
	<polyline fill="none" stroke="rgb(0,0,255)" stroke-opacity="1" points="395.748790,314.947672 391.150000,305.750000 403.350000,305.750000 391.150000,281.350000 403.350000,281.350000 395.796370,266.243045"/>
	<polyline fill="none" stroke="rgb(0,0,255)" stroke-dasharray="4,2" stroke-opacity="1" points="388.100000,305.750000 436.900000,305.750000"/>
	<polyline fill="none" stroke="rgb(0,0,255)" stroke-dasharray="4,2" stroke-opacity="1" points="388.100000,299.650000 436.900000,299.650000"/>
	<polyline fill="none" stroke="rgb(0,0,255)" stroke-dasharray="4,2" stroke-opacity="1" points="388.100000,281.350000 436.900000,281.350000"/>
	<polyline fill="none" stroke="rgb(0,0,255)" stroke-dasharray="4,2" stroke-opacity="1" points="388.100000,275.250000 436.900000,275.250000"/>
	<polyline fill="none" stroke="rgb(255,0,255)" stroke-opacity="1" points="436.900000,314.900000 436.900000,305.750000 424.700000,305.750000 424.700000,299.650000 436.900000,299.650000 436.900000,281.350000 424.700000,281.350000 424.700000,275.250000 436.900000,275.250000 436.900000,266.100000"/>
	<rect fill="rgb(255,255,255)" stroke="rgb(0,0,127)" stroke-opacity="1" x="382" y="168.5" width="61" height="61"/>
	<text x="372.85" y="199" fill="rgb(0,0,255)" dominant-baseline="central" transform="rotate(-90 372.85,199)" font-size="10" font-family="Arial" text-anchor="middle">deadTime</text>
	<rect fill="rgb(255,255,255)" stroke="none" stroke-opacity="1" x="388.1" y="192.9" width="48.8" height="12.2"/>
	<polyline fill="none" stroke="rgb(255,0,255)" stroke-opacity="1" points="391.150000,220.350000 391.150000,205.100000 409.450000,205.100000 409.450000,177.650000"/>
	<polyline fill="none" stroke="rgb(255,0,255)" stroke-opacity="1" points="433.850000,220.350000 433.850000,192.900000 415.550000,192.900000 415.550000,177.650000"/>
	<polyline fill="none" stroke="rgb(0,0,255)" stroke-dasharray="4,2" stroke-opacity="1" points="388.100000,192.900000 436.900000,192.900000"/>
	<polyline fill="none" stroke="rgb(0,0,255)" stroke-dasharray="4,2" stroke-opacity="1" points="388.100000,205.100000 436.900000,205.100000"/>
	<polyline fill="none" stroke="rgb(255,255,255)" stroke-width="5" stroke-opacity="1" points="171.550000,430.800000 205.100000,430.800000"/>
	<polyline fill="none" stroke="rgb(0,0,127)" stroke-opacity="1" points="171.550000,430.800000 205.100000,430.800000"/>
	<polyline fill="none" stroke="rgb(255,255,255)" stroke-width="5" stroke-opacity="1" points="171.550000,333.200000 290.500000,333.200000 290.500000,394.200000 314.900000,394.200000"/>
	<polyline fill="none" stroke="rgb(0,0,127)" stroke-opacity="1" points="171.550000,333.200000 290.500000,333.200000 290.500000,394.200000 314.900000,394.200000"/>
	<polyline fill="none" stroke="rgb(255,255,255)" stroke-width="5" stroke-opacity="1" points="275.250000,430.800000 314.900000,430.800000"/>
	<polyline fill="none" stroke="rgb(0,0,127)" stroke-opacity="1" points="275.250000,430.800000 314.900000,430.800000"/>
	<polyline fill="none" stroke="rgb(255,255,255)" stroke-width="5" stroke-opacity="1" points="80.050000,430.800000 80.050000,430.800000 101.400000,430.800000"/>
	<polyline fill="none" stroke="rgb(0,0,127)" stroke-opacity="1" points="80.050000,430.800000 80.050000,430.800000 101.400000,430.800000"/>
	<polyline fill="none" stroke="rgb(255,255,255)" stroke-width="5" stroke-opacity="1" points="748.000000,321.000000 748.000000,321.000000"/>
	<polyline fill="none" stroke="rgb(0,0,255)" stroke-opacity="1" points="748.000000,321.000000 748.000000,321.000000"/>
	<polyline fill="none" stroke="rgb(255,255,255)" stroke-width="5" stroke-opacity="1" points="748.000000,260.000000 748.000000,260.000000"/>
	<polyline fill="none" stroke="rgb(0,0,255)" stroke-opacity="1" points="748.000000,260.000000 748.000000,260.000000"/>
	<polyline fill="none" stroke="rgb(255,255,255)" stroke-width="5" stroke-opacity="1" points="656.500000,275.250000 687.000000,275.250000 687.000000,199.000000 748.000000,199.000000"/>
	<polyline fill="none" stroke="rgb(0,0,255)" stroke-opacity="1" points="656.500000,275.250000 687.000000,275.250000 687.000000,199.000000 748.000000,199.000000"/>
	<polyline fill="none" stroke="rgb(255,255,255)" stroke-width="5" stroke-opacity="1" points="656.500000,305.750000 687.000000,305.750000 687.000000,382.000000 748.000000,382.000000"/>
	<polyline fill="none" stroke="rgb(0,0,255)" stroke-opacity="1" points="656.500000,305.750000 687.000000,305.750000 687.000000,382.000000 748.000000,382.000000"/>
	<polyline fill="none" stroke="rgb(255,255,255)" stroke-width="5" stroke-opacity="1" points="534.500000,138.000000 534.500000,138.000000"/>
	<polyline fill="none" stroke="rgb(0,0,255)" stroke-opacity="1" points="534.500000,138.000000 534.500000,138.000000"/>
	<polyline fill="none" stroke="rgb(255,255,255)" stroke-width="5" stroke-opacity="1" points="534.500000,77.000000 534.500000,77.000000"/>
	<polyline fill="none" stroke="rgb(0,0,255)" stroke-opacity="1" points="534.500000,77.000000 534.500000,77.000000"/>
	<polyline fill="none" stroke="rgb(255,255,255)" stroke-width="5" stroke-opacity="1" points="443.000000,122.750000 473.500000,122.750000 473.500000,199.000000 534.500000,199.000000"/>
	<polyline fill="none" stroke="rgb(0,0,255)" stroke-opacity="1" points="443.000000,122.750000 473.500000,122.750000 473.500000,199.000000 534.500000,199.000000"/>
	<polyline fill="none" stroke="rgb(255,255,255)" stroke-width="5" stroke-opacity="1" points="443.000000,92.250000 473.500000,92.250000 473.500000,16.000000 534.500000,16.000000"/>
	<polyline fill="none" stroke="rgb(0,0,255)" stroke-opacity="1" points="443.000000,92.250000 473.500000,92.250000 473.500000,16.000000 534.500000,16.000000"/>
	<polyline fill="none" stroke="rgb(255,255,255)" stroke-width="5" stroke-opacity="1" points="504.000000,321.000000 504.000000,321.000000"/>
	<polyline fill="none" stroke="rgb(0,0,255)" stroke-opacity="1" points="504.000000,321.000000 504.000000,321.000000"/>
	<polyline fill="none" stroke="rgb(255,255,255)" stroke-width="5" stroke-opacity="1" points="290.500000,138.000000 290.500000,138.000000"/>
	<polyline fill="none" stroke="rgb(0,0,255)" stroke-opacity="1" points="290.500000,138.000000 290.500000,138.000000"/>
	<polyline fill="none" stroke="rgb(255,255,255)" stroke-width="5" stroke-opacity="1" points="290.500000,77.000000 339.300000,77.000000 339.300000,92.250000 382.000000,92.250000"/>
	<polyline fill="none" stroke="rgb(0,0,255)" stroke-opacity="1" points="290.500000,77.000000 339.300000,77.000000 339.300000,92.250000 382.000000,92.250000"/>
	<polyline fill="none" stroke="rgb(255,255,255)" stroke-width="5" stroke-opacity="1" points="290.500000,138.000000 339.300000,138.000000 339.300000,122.750000 382.000000,122.750000"/>
	<polyline fill="none" stroke="rgb(0,0,255)" stroke-opacity="1" points="290.500000,138.000000 339.300000,138.000000 339.300000,122.750000 382.000000,122.750000"/>
	<polyline fill="none" stroke="rgb(255,255,255)" stroke-width="5" stroke-opacity="1" points="504.000000,321.000000 552.800000,321.000000 552.800000,305.750000 595.500000,305.750000"/>
	<polyline fill="none" stroke="rgb(0,0,255)" stroke-opacity="1" points="504.000000,321.000000 552.800000,321.000000 552.800000,305.750000 595.500000,305.750000"/>
	<polyline fill="none" stroke="rgb(255,255,255)" stroke-width="5" stroke-opacity="1" points="504.000000,260.000000 552.800000,260.000000 552.800000,275.250000 595.500000,275.250000"/>
	<polyline fill="none" stroke="rgb(0,0,255)" stroke-opacity="1" points="504.000000,260.000000 552.800000,260.000000 552.800000,275.250000 595.500000,275.250000"/>
	<polyline fill="none" stroke="rgb(255,255,255)" stroke-width="5" stroke-opacity="1" points="385.050000,412.500000 626.000000,412.500000 626.000000,327.100000"/>
	<polyline fill="none" stroke="rgb(0,0,127)" stroke-opacity="1" points="385.050000,412.500000 626.000000,412.500000 626.000000,327.100000"/>
	<polyline fill="none" stroke="rgb(255,255,255)" stroke-width="5" stroke-opacity="1" points="400.300000,165.450000 400.300000,138.000000"/>
	<polyline fill="none" stroke="rgb(255,0,255)" stroke-opacity="1" points="400.300000,165.450000 400.300000,138.000000"/>
	<polyline fill="none" stroke="rgb(255,255,255)" stroke-width="5" stroke-opacity="1" points="424.700000,165.450000 424.700000,151.725000 424.700000,138.000000"/>
	<polyline fill="none" stroke="rgb(255,0,255)" stroke-opacity="1" points="424.700000,165.450000 424.700000,151.725000 424.700000,138.000000"/>
	<polyline fill="none" stroke="rgb(255,255,255)" stroke-width="5" stroke-opacity="1" points="412.500000,256.950000 412.500000,246.275000 412.500000,235.600000"/>
	<polyline fill="none" stroke="rgb(255,0,255)" stroke-opacity="1" points="412.500000,256.950000 412.500000,246.275000 412.500000,235.600000"/>
	<polyline fill="none" stroke="rgb(255,255,255)" stroke-width="5" stroke-opacity="1" points="412.500000,327.100000 412.500000,412.500000 626.000000,412.500000 626.000000,327.100000"/>
	<polyline fill="none" stroke="rgb(0,0,127)" stroke-opacity="1" points="412.500000,327.100000 412.500000,412.500000 626.000000,412.500000 626.000000,327.100000"/>
	<ellipse fill="rgb(0,0,127)" stroke="rgb(0,0,127)" cx="412.5" cy="412.5" rx="3.5" ry="3.5"/>
	<rect fill="rgb(0,0,255)" stroke="rgb(0,0,255)" stroke-opacity="1" x="378.95" y="89.2" width="6.1" height="6.1"/>
	<rect fill="rgb(255,255,255)" stroke="rgb(0,0,255)" stroke-opacity="1" x="378.95" y="119.7" width="6.1" height="6.1"/>
	<rect fill="rgb(0,0,255)" stroke="rgb(0,0,255)" stroke-opacity="1" x="439.95" y="89.2" width="6.1" height="6.1"/>
	<rect fill="rgb(255,255,255)" stroke="rgb(0,0,255)" stroke-opacity="1" x="439.95" y="119.7" width="6.1" height="6.1"/>
	<polygon fill="rgb(255,0,255)" stroke="rgb(255,0,255)" stroke-opacity="1" points="397.250000,141.050000 400.300000,134.950000 403.350000,141.050000 397.250000,141.050000"/>
	<polygon fill="rgb(255,0,255)" stroke="rgb(255,0,255)" stroke-opacity="1" points="421.650000,141.050000 424.700000,134.950000 427.750000,141.050000 421.650000,141.050000"/>
	<rect fill="rgb(0,0,255)" stroke="rgb(0,0,255)" stroke-opacity="1" x="287.45" y="73.95" width="6.1" height="6.1"/>
	<rect fill="rgb(255,255,255)" stroke="rgb(0,0,255)" stroke-opacity="1" x="287.45" y="134.95" width="6.1" height="6.1"/>
	<rect fill="rgb(0,0,255)" stroke="rgb(0,0,255)" stroke-opacity="1" x="531.45" y="134.95" width="6.1" height="6.1"/>
	<rect fill="rgb(255,255,255)" stroke="rgb(0,0,255)" stroke-opacity="1" x="531.45" y="195.95" width="6.1" height="6.1"/>
	<rect fill="rgb(0,0,255)" stroke="rgb(0,0,255)" stroke-opacity="1" x="531.45" y="12.95" width="6.1" height="6.1"/>
	<rect fill="rgb(255,255,255)" stroke="rgb(0,0,255)" stroke-opacity="1" x="531.45" y="73.95" width="6.1" height="6.1"/>
	<polygon fill="rgb(0,0,127)" stroke="rgb(0,0,127)" stroke-opacity="1" points="95.300000,436.900000 107.500000,430.800000 95.300000,424.700000 95.300000,436.900000"/>
	<polygon fill="rgb(255,255,255)" stroke="rgb(0,0,127)" stroke-opacity="1" points="168.500000,433.850000 174.600000,430.800000 168.500000,427.750000 168.500000,433.850000"/>
	<polygon fill="rgb(0,0,127)" stroke="rgb(0,0,127)" stroke-opacity="1" points="199.000000,436.900000 211.200000,430.800000 199.000000,424.700000 199.000000,436.900000"/>
	<polygon fill="rgb(255,255,255)" stroke="rgb(0,0,127)" stroke-opacity="1" points="272.200000,433.850000 278.300000,430.800000 272.200000,427.750000 272.200000,433.850000"/>
	<polygon fill="rgb(0,0,127)" stroke="rgb(0,0,127)" stroke-opacity="1" points="308.800000,436.900000 321.000000,430.800000 308.800000,424.700000 308.800000,436.900000"/>
	<polygon fill="rgb(0,0,127)" stroke="rgb(0,0,127)" stroke-opacity="1" points="308.800000,400.300000 321.000000,394.200000 308.800000,388.100000 308.800000,400.300000"/>
	<polygon fill="rgb(255,255,255)" stroke="rgb(0,0,127)" stroke-opacity="1" points="382.000000,415.550000 388.100000,412.500000 382.000000,409.450000 382.000000,415.550000"/>
	<polygon fill="rgb(255,255,255)" stroke="rgb(0,0,127)" stroke-opacity="1" points="168.500000,336.250000 174.600000,333.200000 168.500000,330.150000 168.500000,336.250000"/>
	<rect fill="rgb(0,0,255)" stroke="rgb(0,0,255)" stroke-opacity="1" x="531.45" y="73.95" width="6.1" height="6.1"/>
	<rect fill="rgb(255,255,255)" stroke="rgb(0,0,255)" stroke-opacity="1" x="531.45" y="134.95" width="6.1" height="6.1"/>
	<rect fill="rgb(0,0,255)" stroke="rgb(0,0,255)" stroke-opacity="1" x="592.45" y="272.2" width="6.1" height="6.1"/>
	<rect fill="rgb(255,255,255)" stroke="rgb(0,0,255)" stroke-opacity="1" x="592.45" y="302.7" width="6.1" height="6.1"/>
	<rect fill="rgb(0,0,255)" stroke="rgb(0,0,255)" stroke-opacity="1" x="653.45" y="272.2" width="6.1" height="6.1"/>
	<rect fill="rgb(255,255,255)" stroke="rgb(0,0,255)" stroke-opacity="1" x="653.45" y="302.7" width="6.1" height="6.1"/>
	<polygon fill="rgb(0,0,127)" stroke="rgb(0,0,127)" stroke-opacity="1" points="619.900000,333.200000 626.000000,321.000000 632.100000,333.200000 619.900000,333.200000"/>
	<rect fill="rgb(0,0,255)" stroke="rgb(0,0,255)" stroke-opacity="1" x="744.95" y="195.95" width="6.1" height="6.1"/>
	<rect fill="rgb(255,255,255)" stroke="rgb(0,0,255)" stroke-opacity="1" x="744.95" y="256.95" width="6.1" height="6.1"/>
	<rect fill="rgb(0,0,255)" stroke="rgb(0,0,255)" stroke-opacity="1" x="744.95" y="256.95" width="6.1" height="6.1"/>
	<rect fill="rgb(255,255,255)" stroke="rgb(0,0,255)" stroke-opacity="1" x="744.95" y="317.95" width="6.1" height="6.1"/>
	<rect fill="rgb(0,0,255)" stroke="rgb(0,0,255)" stroke-opacity="1" x="287.45" y="134.95" width="6.1" height="6.1"/>
	<polygon fill="rgb(255,255,255)" stroke="rgb(0,0,127)" stroke-opacity="1" points="77.000000,427.750000 83.100000,430.800000 77.000000,433.850000 77.000000,427.750000"/>
	<rect fill="rgb(0,0,255)" stroke="rgb(0,0,255)" stroke-opacity="1" x="744.95" y="317.95" width="6.1" height="6.1"/>
	<rect fill="rgb(255,255,255)" stroke="rgb(0,0,255)" stroke-opacity="1" x="744.95" y="378.95" width="6.1" height="6.1"/>
	<rect fill="rgb(0,0,255)" stroke="rgb(0,0,255)" stroke-opacity="1" x="500.95" y="256.95" width="6.1" height="6.1"/>
	<rect fill="rgb(255,255,255)" stroke="rgb(0,0,255)" stroke-opacity="1" x="500.95" y="317.95" width="6.1" height="6.1"/>
	<rect fill="rgb(0,0,255)" stroke="rgb(0,0,255)" stroke-opacity="1" x="500.95" y="317.95" width="6.1" height="6.1"/>
	<polygon fill="rgb(0,0,127)" stroke="rgb(0,0,127)" stroke-opacity="1" points="406.400000,333.200000 412.500000,321.000000 418.600000,333.200000 406.400000,333.200000"/>
	<polygon fill="rgb(255,255,255)" stroke="rgb(255,0,255)" stroke-opacity="1" points="409.450000,260.000000 412.500000,253.900000 415.550000,260.000000 409.450000,260.000000"/>
	<polygon fill="rgb(255,0,255)" stroke="rgb(255,0,255)" stroke-opacity="1" points="406.400000,241.700000 412.500000,229.500000 418.600000,241.700000 406.400000,241.700000"/>
	<polygon fill="rgb(255,255,255)" stroke="rgb(255,0,255)" stroke-opacity="1" points="397.250000,168.500000 400.300000,162.400000 403.350000,168.500000 397.250000,168.500000"/>
	<polygon fill="rgb(255,255,255)" stroke="rgb(255,0,255)" stroke-opacity="1" points="421.650000,168.500000 424.700000,162.400000 427.750000,168.500000 421.650000,168.500000"/>
</svg>
