<?xml version="1.0" standalone="no"?>
<!DOCTYPE svg PUBLIC "-//W3C//DTD SVG 1.1//EN" "http://www.w3.org/Graphics/SVG/1.1/DTD/svg11.dtd">
<svg viewBox="0 0 817.000000 354.000000" version="1.1" xmlns="http://www.w3.org/2000/svg" xmlns:xlink="http://www.w3.org/1999/xlink">
	<polyline fill="none" stroke="rgb(229,229,229)" stroke-width="1" stroke-opacity="1" points="59.000000,35.000000 59.000000,329.000000"/>
	<polyline fill="none" stroke="rgb(229,229,229)" stroke-width="1" stroke-opacity="1" points="88.320000,35.000000 88.320000,329.000000"/>
	<polyline fill="none" stroke="rgb(229,229,229)" stroke-width="1" stroke-opacity="1" points="117.640000,35.000000 117.640000,329.000000"/>
	<polyline fill="none" stroke="rgb(229,229,229)" stroke-width="1" stroke-opacity="1" points="146.960000,35.000000 146.960000,329.000000"/>
	<polyline fill="none" stroke="rgb(229,229,229)" stroke-width="1" stroke-opacity="1" points="176.280000,35.000000 176.280000,329.000000"/>
	<polyline fill="none" stroke="rgb(229,229,229)" stroke-width="1" stroke-opacity="1" points="205.600000,35.000000 205.600000,329.000000"/>
	<polyline fill="none" stroke="rgb(229,229,229)" stroke-width="1" stroke-opacity="1" points="234.920000,35.000000 234.920000,329.000000"/>
	<polyline fill="none" stroke="rgb(229,229,229)" stroke-width="1" stroke-opacity="1" points="264.240000,35.000000 264.240000,329.000000"/>
	<polyline fill="none" stroke="rgb(229,229,229)" stroke-width="1" stroke-opacity="1" points="293.560000,35.000000 293.560000,329.000000"/>
	<polyline fill="none" stroke="rgb(229,229,229)" stroke-width="1" stroke-opacity="1" points="322.880000,35.000000 322.880000,329.000000"/>
	<polyline fill="none" stroke="rgb(229,229,229)" stroke-width="1" stroke-opacity="1" points="352.200000,35.000000 352.200000,329.000000"/>
	<polyline fill="none" stroke="rgb(229,229,229)" stroke-width="1" stroke-opacity="1" points="381.520000,35.000000 381.520000,329.000000"/>
	<polyline fill="none" stroke="rgb(229,229,229)" stroke-width="1" stroke-opacity="1" points="410.840000,35.000000 410.840000,329.000000"/>
	<polyline fill="none" stroke="rgb(229,229,229)" stroke-width="1" stroke-opacity="1" points="440.160000,35.000000 440.160000,329.000000"/>
	<polyline fill="none" stroke="rgb(229,229,229)" stroke-width="1" stroke-opacity="1" points="469.480000,35.000000 469.480000,329.000000"/>
	<polyline fill="none" stroke="rgb(229,229,229)" stroke-width="1" stroke-opacity="1" points="498.800000,35.000000 498.800000,329.000000"/>
	<polyline fill="none" stroke="rgb(229,229,229)" stroke-width="1" stroke-opacity="1" points="528.120000,35.000000 528.120000,329.000000"/>
	<polyline fill="none" stroke="rgb(229,229,229)" stroke-width="1" stroke-opacity="1" points="557.440000,35.000000 557.440000,329.000000"/>
	<polyline fill="none" stroke="rgb(229,229,229)" stroke-width="1" stroke-opacity="1" points="586.760000,35.000000 586.760000,329.000000"/>
	<polyline fill="none" stroke="rgb(229,229,229)" stroke-width="1" stroke-opacity="1" points="616.080000,35.000000 616.080000,329.000000"/>
	<polyline fill="none" stroke="rgb(229,229,229)" stroke-width="1" stroke-opacity="1" points="645.400000,35.000000 645.400000,329.000000"/>
	<polyline fill="none" stroke="rgb(229,229,229)" stroke-width="1" stroke-opacity="1" points="674.720000,35.000000 674.720000,329.000000"/>
	<polyline fill="none" stroke="rgb(229,229,229)" stroke-width="1" stroke-opacity="1" points="704.040000,35.000000 704.040000,329.000000"/>
	<polyline fill="none" stroke="rgb(229,229,229)" stroke-width="1" stroke-opacity="1" points="733.360000,35.000000 733.360000,329.000000"/>
	<polyline fill="none" stroke="rgb(229,229,229)" stroke-width="1" stroke-opacity="1" points="762.680000,35.000000 762.680000,329.000000"/>
	<polyline fill="none" stroke="rgb(229,229,229)" stroke-width="1" stroke-opacity="1" points="792.000000,35.000000 792.000000,329.000000"/>
	<polyline fill="none" stroke="rgb(229,229,229)" stroke-width="1" stroke-opacity="1" points="59.000000,329.000000 792.000000,329.000000"/>
	<polyline fill="none" stroke="rgb(229,229,229)" stroke-width="1" stroke-opacity="1" points="59.000000,292.250000 792.000000,292.250000"/>
	<polyline fill="none" stroke="rgb(229,229,229)" stroke-width="1" stroke-opacity="1" points="59.000000,255.500000 792.000000,255.500000"/>
	<polyline fill="none" stroke="rgb(229,229,229)" stroke-width="1" stroke-opacity="1" points="59.000000,218.750000 792.000000,218.750000"/>
	<polyline fill="none" stroke="rgb(229,229,229)" stroke-width="1" stroke-opacity="1" points="59.000000,182.000000 792.000000,182.000000"/>
	<polyline fill="none" stroke="rgb(229,229,229)" stroke-width="1" stroke-opacity="1" points="59.000000,145.250000 792.000000,145.250000"/>
	<polyline fill="none" stroke="rgb(229,229,229)" stroke-width="1" stroke-opacity="1" points="59.000000,108.500000 792.000000,108.500000"/>
	<polyline fill="none" stroke="rgb(229,229,229)" stroke-width="1" stroke-opacity="1" points="59.000000,71.750000 792.000000,71.750000"/>
	<polyline fill="none" stroke="rgb(229,229,229)" stroke-width="1" stroke-opacity="1" points="59.000000,35.000000 792.000000,35.000000"/>
	<polyline fill="none" stroke="rgb(192,192,192)" stroke-width="1" stroke-opacity="1" points="59.000000,182.000000 792.000000,182.000000"/>
	<polyline fill="none" stroke="rgb(0,0,0)" stroke-width="1" stroke-opacity="1" points="59.000000,329.000000 792.000000,329.000000"/>
	<polyline fill="none" stroke="rgb(0,0,0)" stroke-width="1" stroke-opacity="1" points="792.000000,329.000000 792.000000,35.000000"/>
	<polyline fill="none" stroke="rgb(0,0,0)" stroke-width="1" stroke-opacity="1" points="792.000000,35.000000 59.000000,35.000000"/>
	<polyline fill="none" stroke="rgb(0,0,0)" stroke-width="1" stroke-opacity="1" points="59.000000,35.000000 59.000000,329.000000"/>
	<polyline fill="none" stroke="rgb(0,0,0)" stroke-width="1" stroke-opacity="1" points="59.000000,329.000000 59.000000,333.000000"/>
	<polyline fill="none" stroke="rgb(0,0,0)" stroke-width="1" stroke-opacity="1" points="88.320000,329.000000 88.320000,333.000000"/>
	<polyline fill="none" stroke="rgb(0,0,0)" stroke-width="1" stroke-opacity="1" points="117.640000,329.000000 117.640000,333.000000"/>
	<polyline fill="none" stroke="rgb(0,0,0)" stroke-width="1" stroke-opacity="1" points="146.960000,329.000000 146.960000,333.000000"/>
	<polyline fill="none" stroke="rgb(0,0,0)" stroke-width="1" stroke-opacity="1" points="176.280000,329.000000 176.280000,333.000000"/>
	<polyline fill="none" stroke="rgb(0,0,0)" stroke-width="1" stroke-opacity="1" points="205.600000,329.000000 205.600000,333.000000"/>
	<polyline fill="none" stroke="rgb(0,0,0)" stroke-width="1" stroke-opacity="1" points="234.920000,329.000000 234.920000,333.000000"/>
	<polyline fill="none" stroke="rgb(0,0,0)" stroke-width="1" stroke-opacity="1" points="264.240000,329.000000 264.240000,333.000000"/>
	<polyline fill="none" stroke="rgb(0,0,0)" stroke-width="1" stroke-opacity="1" points="293.560000,329.000000 293.560000,333.000000"/>
	<polyline fill="none" stroke="rgb(0,0,0)" stroke-width="1" stroke-opacity="1" points="322.880000,329.000000 322.880000,333.000000"/>
	<polyline fill="none" stroke="rgb(0,0,0)" stroke-width="1" stroke-opacity="1" points="352.200000,329.000000 352.200000,333.000000"/>
	<polyline fill="none" stroke="rgb(0,0,0)" stroke-width="1" stroke-opacity="1" points="381.520000,329.000000 381.520000,333.000000"/>
	<polyline fill="none" stroke="rgb(0,0,0)" stroke-width="1" stroke-opacity="1" points="410.840000,329.000000 410.840000,333.000000"/>
	<polyline fill="none" stroke="rgb(0,0,0)" stroke-width="1" stroke-opacity="1" points="440.160000,329.000000 440.160000,333.000000"/>
	<polyline fill="none" stroke="rgb(0,0,0)" stroke-width="1" stroke-opacity="1" points="469.480000,329.000000 469.480000,333.000000"/>
	<polyline fill="none" stroke="rgb(0,0,0)" stroke-width="1" stroke-opacity="1" points="498.800000,329.000000 498.800000,333.000000"/>
	<polyline fill="none" stroke="rgb(0,0,0)" stroke-width="1" stroke-opacity="1" points="528.120000,329.000000 528.120000,333.000000"/>
	<polyline fill="none" stroke="rgb(0,0,0)" stroke-width="1" stroke-opacity="1" points="557.440000,329.000000 557.440000,333.000000"/>
	<polyline fill="none" stroke="rgb(0,0,0)" stroke-width="1" stroke-opacity="1" points="586.760000,329.000000 586.760000,333.000000"/>
	<polyline fill="none" stroke="rgb(0,0,0)" stroke-width="1" stroke-opacity="1" points="616.080000,329.000000 616.080000,333.000000"/>
	<polyline fill="none" stroke="rgb(0,0,0)" stroke-width="1" stroke-opacity="1" points="645.400000,329.000000 645.400000,333.000000"/>
	<polyline fill="none" stroke="rgb(0,0,0)" stroke-width="1" stroke-opacity="1" points="674.720000,329.000000 674.720000,333.000000"/>
	<polyline fill="none" stroke="rgb(0,0,0)" stroke-width="1" stroke-opacity="1" points="704.040000,329.000000 704.040000,333.000000"/>
	<polyline fill="none" stroke="rgb(0,0,0)" stroke-width="1" stroke-opacity="1" points="733.360000,329.000000 733.360000,333.000000"/>
	<polyline fill="none" stroke="rgb(0,0,0)" stroke-width="1" stroke-opacity="1" points="762.680000,329.000000 762.680000,333.000000"/>
	<polyline fill="none" stroke="rgb(0,0,0)" stroke-width="1" stroke-opacity="1" points="792.000000,329.000000 792.000000,333.000000"/>
	<polyline fill="none" stroke="rgb(0,0,0)" stroke-width="1" stroke-opacity="1" points="59.000000,329.000000 59.000000,335.400000"/>
	<text x="59" y="345.5" fill="rgb(0,0,0)" dominant-baseline="central" font-size="13" font-family="Arial" text-anchor="middle">0.42</text>
	<polyline fill="none" stroke="rgb(0,0,0)" stroke-width="1" stroke-opacity="1" points="205.600000,329.000000 205.600000,335.400000"/>
	<text x="205.6" y="345.5" fill="rgb(0,0,0)" dominant-baseline="central" font-size="13" font-family="Arial" text-anchor="middle">0.43</text>
	<polyline fill="none" stroke="rgb(0,0,0)" stroke-width="1" stroke-opacity="1" points="352.200000,329.000000 352.200000,335.400000"/>
	<text x="352.2" y="345.5" fill="rgb(0,0,0)" dominant-baseline="central" font-size="13" font-family="Arial" text-anchor="middle">0.44</text>
	<polyline fill="none" stroke="rgb(0,0,0)" stroke-width="1" stroke-opacity="1" points="498.800000,329.000000 498.800000,335.400000"/>
	<text x="498.8" y="345.5" fill="rgb(0,0,0)" dominant-baseline="central" font-size="13" font-family="Arial" text-anchor="middle">0.45</text>
	<polyline fill="none" stroke="rgb(0,0,0)" stroke-width="1" stroke-opacity="1" points="645.400000,329.000000 645.400000,335.400000"/>
	<text x="645.4" y="345.5" fill="rgb(0,0,0)" dominant-baseline="central" font-size="13" font-family="Arial" text-anchor="middle">0.46</text>
	<polyline fill="none" stroke="rgb(0,0,0)" stroke-width="1" stroke-opacity="1" points="792.000000,329.000000 792.000000,335.400000"/>
	<text x="792" y="345.5" fill="rgb(0,0,0)" dominant-baseline="central" font-size="13" font-family="Arial" text-anchor="middle">0.47</text>
	<polyline fill="none" stroke="rgb(0,0,0)" stroke-width="1" stroke-opacity="1" points="55.000000,329.000000 59.000000,329.000000"/>
	<polyline fill="none" stroke="rgb(0,0,0)" stroke-width="1" stroke-opacity="1" points="55.000000,292.250000 59.000000,292.250000"/>
	<polyline fill="none" stroke="rgb(0,0,0)" stroke-width="1" stroke-opacity="1" points="55.000000,255.500000 59.000000,255.500000"/>
	<polyline fill="none" stroke="rgb(0,0,0)" stroke-width="1" stroke-opacity="1" points="55.000000,218.750000 59.000000,218.750000"/>
	<polyline fill="none" stroke="rgb(0,0,0)" stroke-width="1" stroke-opacity="1" points="55.000000,182.000000 59.000000,182.000000"/>
	<polyline fill="none" stroke="rgb(0,0,0)" stroke-width="1" stroke-opacity="1" points="55.000000,145.250000 59.000000,145.250000"/>
	<polyline fill="none" stroke="rgb(0,0,0)" stroke-width="1" stroke-opacity="1" points="55.000000,108.500000 59.000000,108.500000"/>
	<polyline fill="none" stroke="rgb(0,0,0)" stroke-width="1" stroke-opacity="1" points="55.000000,71.750000 59.000000,71.750000"/>
	<polyline fill="none" stroke="rgb(0,0,0)" stroke-width="1" stroke-opacity="1" points="55.000000,35.000000 59.000000,35.000000"/>
	<rect fill="none" stroke="none" stroke-dasharray="none" stroke-width="1" stroke-opacity="1" x="0" y="321" width="51" height="16"/>
	<polyline fill="none" stroke="rgb(0,0,0)" stroke-width="1" stroke-opacity="1" points="52.600000,329.000000 59.000000,329.000000"/>
	<text x="51" y="329" fill="rgb(0,0,0)" dominant-baseline="central" font-size="13" font-family="Arial" text-anchor="end">-800</text>
	<polyline fill="none" stroke="rgb(0,0,0)" stroke-width="1" stroke-opacity="1" points="52.600000,292.250000 59.000000,292.250000"/>
	<text x="51" y="292.25" fill="rgb(0,0,0)" dominant-baseline="central" font-size="13" font-family="Arial" text-anchor="end">-600</text>
	<polyline fill="none" stroke="rgb(0,0,0)" stroke-width="1" stroke-opacity="1" points="52.600000,255.500000 59.000000,255.500000"/>
	<text x="51" y="255.5" fill="rgb(0,0,0)" dominant-baseline="central" font-size="13" font-family="Arial" text-anchor="end">-400</text>
	<polyline fill="none" stroke="rgb(0,0,0)" stroke-width="1" stroke-opacity="1" points="52.600000,218.750000 59.000000,218.750000"/>
	<text x="51" y="218.75" fill="rgb(0,0,0)" dominant-baseline="central" font-size="13" font-family="Arial" text-anchor="end">-200</text>
	<polyline fill="none" stroke="rgb(0,0,0)" stroke-width="1" stroke-opacity="1" points="52.600000,182.000000 59.000000,182.000000"/>
	<text x="51" y="182" fill="rgb(0,0,0)" dominant-baseline="central" font-size="13" font-family="Arial" text-anchor="end">0</text>
	<polyline fill="none" stroke="rgb(0,0,0)" stroke-width="1" stroke-opacity="1" points="52.600000,145.250000 59.000000,145.250000"/>
	<text x="51" y="145.25" fill="rgb(0,0,0)" dominant-baseline="central" font-size="13" font-family="Arial" text-anchor="end">200</text>
	<polyline fill="none" stroke="rgb(0,0,0)" stroke-width="1" stroke-opacity="1" points="52.600000,108.500000 59.000000,108.500000"/>
	<text x="51" y="108.5" fill="rgb(0,0,0)" dominant-baseline="central" font-size="13" font-family="Arial" text-anchor="end">400</text>
	<polyline fill="none" stroke="rgb(0,0,0)" stroke-width="1" stroke-opacity="1" points="52.600000,71.750000 59.000000,71.750000"/>
	<text x="51" y="71.75" fill="rgb(0,0,0)" dominant-baseline="central" font-size="13" font-family="Arial" text-anchor="end">600</text>
	<polyline fill="none" stroke="rgb(0,0,0)" stroke-width="1" stroke-opacity="1" points="52.600000,35.000000 59.000000,35.000000"/>
	<text x="51" y="35" fill="rgb(0,0,0)" dominant-baseline="central" font-size="13" font-family="Arial" text-anchor="end">800</text>
	<rect fill="rgb(255,255,255)" stroke="none" stroke-opacity="0.7" x="59" y="9" width="269" height="18"/>
	<polyline fill="none" stroke="rgb(28,108,200)" stroke-width="1" stroke-opacity="1" points="59.000000,18.000000 89.000000,18.000000"/>
	<text x="94" y="18" fill="rgb(0,0,0)" dominant-baseline="central" font-size="13" font-family="Arial" text-anchor="start">ACsw.v [V]</text>
	<polyline fill="none" stroke="rgb(238,46,47)" stroke-width="1" stroke-opacity="1" points="159.000000,18.000000 189.000000,18.000000"/>
	<text x="194" y="18" fill="rgb(0,0,0)" dominant-baseline="central" font-size="13" font-family="Arial" text-anchor="start">Lsw.i [A]</text>
	<polyline fill="none" stroke="rgb(0,140,72)" stroke-width="1" stroke-opacity="1" points="248.000000,18.000000 278.000000,18.000000"/>
	<text x="283" y="18" fill="rgb(0,0,0)" dominant-baseline="central" font-size="13" font-family="Arial" text-anchor="start">Lav.i [A]</text>
	<clipPath id="clipArea1">
		<rect x="59" y="35" width="733" height="294">
		</rect>
	</clipPath>
	<polyline fill="none" stroke="rgb(28,108,200)" stroke-width="1" stroke-opacity="1" clip-path="url(#clipArea1)" points="58.999808,181.999999 60.466051,179.229571 61.345535,177.568451 61.345535,177.568451 61.931857,176.461876 63.398101,173.699647 63.938985,172.682224 63.938985,172.682224 64.863907,170.945609 66.036989,168.750103 66.036989,168.750103 66.330150,168.202480 67.795957,165.472968 68.875105,163.474125 68.875105,163.474125 69.262200,162.759766 70.728006,160.065552 70.728006,160.065552 70.728006,160.065552 72.193813,157.392985 73.660056,154.744701 73.805544,154.483496 73.805544,154.483496 75.125862,152.123314 75.419024,151.602494 75.419024,151.602494 76.592106,149.531415 78.057912,146.971557 78.727246,145.814501 78.727246,145.814501 79.524155,144.446268 80.110478,143.446390 80.110478,143.446390 80.989962,141.958039 82.456205,139.509327 83.637588,137.565933 83.637588,137.565933 83.922011,137.102548 84.801495,135.679599 84.801495,135.679599 85.387818,134.740075 86.854061,132.424247 88.319867,130.157339 88.534823,129.829703 88.534823,129.829703 89.492949,128.380547 89.492949,128.380547 89.786110,127.941600 91.251917,125.779207 92.718160,123.672295 93.415893,122.689652 93.415893,122.689652 94.183966,121.622945 94.183966,121.622945 94.183966,121.622945 95.650210,119.633182 97.116016,117.704968 98.279049,116.220394 98.279049,116.220394 98.581822,115.840204 98.874984,115.475031 98.874984,115.475031 100.048066,114.040734 101.513872,112.308326 102.980115,110.644701 103.122545,110.486567 103.122545,110.486567 103.566438,109.998879 103.566438,109.998879 104.445922,109.051491 105.912165,107.530277 107.377971,106.082556 107.945507,105.542336 107.945507,105.542336 108.257455,105.249793 108.257455,105.249793 108.844215,104.709753 110.310021,103.413224 111.775827,102.194254 112.745750,101.431036 112.745750,101.431036 112.948909,101.275728 112.948909,101.275728 113.242071,101.054043 114.707877,99.993712 116.174120,99.014316 117.523274,98.185192 117.523274,98.185192 117.639927,98.116813 117.639927,98.116813 117.639927,98.116813 119.106170,97.302095 120.571976,96.570964 122.037783,95.924144 122.277205,95.826605 122.277205,95.826605 122.331381,95.804954 122.331381,95.804954 123.504026,95.362262 124.969832,94.885890 126.436075,94.495483 127.007543,94.366699 127.007543,94.366699 127.022398,94.363480 127.022398,94.363480 127.403814,94.285069 127.403814,94.285069 127.901882,94.191433 129.368125,93.974043 130.833931,93.843521 131.713415,93.806970 131.713415,93.806970 131.713415,93.806965 131.713415,93.806965 132.300175,93.800000 133.765981,93.843521 135.231787,93.974043 136.395695,94.139518 136.395695,94.139518 136.404869,94.141015 136.404869,94.141015 136.698031,94.191433 138.163837,94.495483 139.630080,94.885890 141.054818,95.347721 141.054818,95.347721 141.095887,95.362262 141.095887,95.362262 141.095887,95.362262 142.562130,95.924144 144.027936,96.570964 145.494180,97.302095 145.691222,97.406884 145.691222,97.406884 145.787341,97.458379 145.787341,97.458379 146.959986,98.116813 148.425792,99.014316 149.892036,99.993712 150.305782,100.284954 150.305782,100.284954 150.478358,100.408192 150.478358,100.408192 151.357842,101.054043 152.824085,102.194254 154.289892,103.413224 154.899807,103.943227 154.899807,103.943227 155.169812,104.181914 155.169812,104.181914 155.756135,104.709753 157.221941,106.082556 158.688185,107.530277 159.474171,108.337043 159.474171,108.337043 159.860830,108.741441 159.860830,108.741441 160.153991,109.051491 161.619797,110.644701 163.086041,112.308326 164.030186,113.416473 164.030186,113.416473 164.551847,114.040734 164.551847,114.040734 164.551847,114.040734 166.018090,115.840204 167.483897,117.704968 168.569598,119.126927 168.569598,119.126927 168.950140,119.633182 169.243301,120.026275 169.243301,120.026275 170.415946,121.622945 171.882189,123.672295 173.093719,125.409789 173.093719,125.409789 173.347996,125.779207 173.934318,126.637624 173.934318,126.637624 174.813802,127.941600 176.280045,130.157339 177.604296,132.202976 177.604296,132.202976 177.745852,132.424247 178.625773,133.808018 178.625773,133.808018 179.212095,134.740075 180.677901,137.102548 182.103076,139.441444 182.103076,139.441444 182.144145,139.509327 183.316790,141.465057 183.316790,141.465057 183.609951,141.958039 185.076194,144.446268 186.542001,146.971557 186.591808,147.057718 186.591808,147.057718 188.007807,149.531415 188.007807,149.531415 188.007807,149.531415 189.474050,152.123314 190.939857,154.744701 191.072238,154.982298 191.072238,154.982298 192.406100,157.392985 192.699261,157.925641 192.699261,157.925641 193.871906,160.065552 195.338150,162.759766 195.546115,163.144106 195.546115,163.144106 196.803956,165.472968 197.390279,166.562966 197.390279,166.562966 198.270199,168.202480 199.736006,170.945609 200.016060,171.470881 200.016060,171.470881 201.201812,173.699647 202.081733,175.356176 202.081733,175.356176 202.668055,176.461876 204.133862,179.229571 204.483383,179.889575 204.483383,179.889575 205.600105,182.000000 206.772750,184.216474 206.772750,184.216474 207.065911,184.770429 208.532154,187.538124 208.950270,188.326674 208.950270,188.326674 209.997961,190.300353 211.464204,193.054391 211.464204,193.054391 211.464204,193.054391 212.930010,195.797520 213.418467,196.708574 213.418467,196.708574 214.395817,198.527032 215.862060,201.240234 216.155221,201.780681 216.155221,201.780681 217.327866,203.934448 217.890159,204.961959 217.890159,204.961959 218.794110,206.607015 220.259916,209.255299 220.846239,210.307226 220.846239,210.307226 221.726159,211.876686 222.367095,213.014121 222.367095,213.014121 223.191966,214.468585 224.658209,217.028443 225.537693,218.547927 225.537693,218.547927 226.124015,219.553732 226.851457,220.793341 226.851457,220.793341 227.589822,222.041961 229.056065,224.490673 230.228710,226.419566 230.228710,226.419566 230.521871,226.897452 231.344995,228.229286 231.344995,228.229286 231.988115,229.259925 233.453921,231.575753 234.920164,233.842661 234.920164,233.842661 234.920164,233.842661 235.849455,235.253406 235.849455,235.253406 236.385971,236.058400 237.852214,238.220793 239.318020,240.327705 239.611182,240.742247 239.611182,240.742247 240.366585,241.799387 240.366585,241.799387 240.783827,242.377055 242.250070,244.366818 243.715876,246.295032 244.302199,247.048655 244.302199,247.048655 244.898133,247.803601 244.898133,247.803601 245.182120,248.159796 246.647926,249.959266 248.114169,251.691674 248.993653,252.698211 248.993653,252.698211 249.445410,253.205632 249.445410,253.205632 249.579976,253.355299 251.045782,254.948509 252.512025,256.469723 253.684670,257.633851 253.684670,257.633851 253.977832,257.917444 254.010599,257.948802 254.010599,257.948802 255.444075,259.290247 256.909881,260.586776 258.376124,261.805746 258.376124,261.805746 258.376124,261.805746 258.594575,261.980776 258.594575,261.980776 259.841931,262.945957 261.308174,264.006288 262.773980,264.985684 263.067142,265.171767 263.067142,265.171767 263.198649,265.254177 263.198649,265.254177 264.239787,265.883187 265.706030,266.697905 267.171836,267.429036 267.758596,267.697920 267.758596,267.697920 267.824131,267.727231 267.824131,267.727231 268.638080,268.075856 270.103886,268.637738 271.570129,269.114110 272.449613,269.358697 272.449613,269.358697 272.471895,269.364472 272.471895,269.364472 273.035936,269.504517 274.502179,269.808567 275.967985,270.025957 277.140630,270.137329 277.140630,270.137329 277.142378,270.137447 277.142378,270.137447 277.433792,270.156479 278.900035,270.200000 280.365841,270.156479 280.976630,270.112667 280.976630,270.112667 281.832085,270.025957 281.832085,270.025957 281.832085,270.025957 281.836454,270.025407 281.836454,270.025407 283.297891,269.808567 284.764134,269.504517 286.229941,269.114110 286.523102,269.025700 286.523102,269.025700 286.554559,269.015999 286.554559,269.015999 287.696184,268.637738 289.161990,268.075856 290.627797,267.429036 291.214556,267.146659 291.214556,267.146659 291.296694,267.105959 291.296694,267.105959 292.094040,266.697905 293.559846,265.883187 295.026089,264.985684 295.905573,264.407815 295.905573,264.407815 296.062421,264.301680 296.062421,264.301680 296.491896,264.006288 297.958139,262.945957 299.423945,261.805746 300.596591,260.836814 300.596591,260.836814 300.851741,260.619715 300.851741,260.619715 300.890189,260.586776 302.355995,259.290247 303.821801,257.917444 305.288045,256.469723 305.288045,256.469723 305.288045,256.469723 305.663344,256.087212 305.663344,256.087212 306.753851,254.948509 308.220094,253.355299 309.685901,251.691674 309.979062,251.350641 309.979062,251.350641 310.496791,250.742082 310.496791,250.742082 311.152144,249.959266 312.617950,248.159796 314.084194,246.295032 314.670516,245.531254 314.670516,245.531254 315.350336,244.633106 315.350336,244.633106 315.550000,244.366818 317.015806,242.377055 318.482050,240.327705 319.361533,239.070334 319.361533,239.070334 319.947856,238.220793 320.222667,237.819732 320.222667,237.819732 321.414099,236.058400 322.879906,233.842661 324.052988,232.033121 324.052988,232.033121 324.346149,231.575753 325.112038,230.371683 325.112038,230.371683 325.811955,229.259925 327.278199,226.897452 328.744005,224.490673 328.744005,224.490673 328.744005,224.490673 330.015827,222.368254 330.015827,222.368254 330.209811,222.041961 331.676055,219.553732 333.141861,217.028443 333.435022,216.519157 333.435022,216.519157 334.608104,214.468585 334.932722,213.897524 334.932722,213.897524 336.073911,211.876686 337.540154,209.255299 338.126476,208.199067 338.126476,208.199067 339.005960,206.607015 339.858793,205.054984 339.858793,205.054984 340.472203,203.934448 341.938010,201.240234 342.817494,199.614421 342.817494,199.614421 343.403816,198.527032 344.792291,195.942341 344.792291,195.942341 344.870059,195.797520 346.335866,193.054391 347.508948,190.851903 347.508948,190.851903 347.802109,190.300353 349.267915,187.538124 349.730158,186.665768 349.730158,186.665768 350.734159,184.770429 352.199965,182.000000 352.199965,182.000000 352.199965,182.000000 353.666208,179.229571 354.669772,177.334230 354.669772,177.334230 355.132015,176.461876 356.597821,173.699647 356.890982,173.148097 356.890982,173.148097 358.064064,170.945609 359.529871,168.202480 359.607639,168.057666 359.607639,168.057666 360.996114,165.472968 361.582436,164.385579 361.582436,164.385579 362.461920,162.759766 363.928164,160.065552 364.541137,158.945011 364.541137,158.945011 365.393970,157.392985 366.273454,155.800933 366.273454,155.800933 366.860213,154.744701 368.326020,152.123314 369.467645,150.102479 369.467645,150.102479 369.791826,149.531415 370.964908,147.480843 370.964908,147.480843 371.258069,146.971557 372.723876,144.446268 374.190119,141.958039 374.384103,141.631738 374.384103,141.631738 375.655925,139.509327 375.655925,139.509327 375.655925,139.509327 377.122168,137.102548 378.587975,134.740075 379.287892,133.628328 379.287892,133.628328 380.054218,132.424247 380.347379,131.966879 380.347379,131.966879 381.520024,130.157339 382.985831,127.941600 384.177263,126.180268 384.177263,126.180268 384.452074,125.779207 385.038397,124.929666 385.038397,124.929666 385.917880,123.672295 387.384124,121.622945 388.849930,119.633182 389.049594,119.366888 389.049594,119.366888 389.729414,118.468746 389.729414,118.468746 390.316173,117.704968 391.781980,115.840204 393.247786,114.040734 393.903139,113.257918 393.903139,113.257918 394.420868,112.649359 394.420868,112.649359 394.714029,112.308326 396.179836,110.644701 397.646079,109.051491 398.736586,107.912788 398.736586,107.912788 399.111885,107.530277 399.111885,107.530277 399.111885,107.530277 400.578129,106.082556 402.043935,104.709753 403.510178,103.413224 403.548626,103.380279 403.548626,103.380279 403.803340,103.163186 403.803340,103.163186 404.975985,102.194254 406.441791,101.054043 407.908034,99.993712 408.337509,99.698320 408.337509,99.698320 408.494357,99.592185 408.494357,99.592185 409.373841,99.014316 410.840084,98.116813 412.305890,97.302095 413.103236,96.894041 413.103236,96.894041 413.185811,96.853341 413.185811,96.853341 413.772134,96.570964 415.237940,95.924144 416.704183,95.362262 417.845371,94.984001 417.845371,94.984001 417.876828,94.974300 417.876828,94.974300 418.169990,94.885890 419.635796,94.495483 421.102039,94.191433 421.121700,94.187957 421.121700,94.187957 422.563476,93.974593 422.563476,93.974593 422.567846,93.974043 422.567846,93.974043 422.567846,93.974043 424.034089,93.843521 425.499895,93.800000 426.966138,93.843521 427.257552,93.862553 427.257552,93.862553 427.259300,93.862671 427.259300,93.862671 428.431945,93.974043 429.898188,94.191433 431.363994,94.495483 431.928035,94.635528 431.928035,94.635528 431.950317,94.641303 431.950317,94.641303 432.829801,94.885890 434.296044,95.362262 435.761850,95.924144 436.575799,96.272769 436.575799,96.272769 436.641771,96.302080 436.641771,96.302080 437.228094,96.570964 438.693900,97.302095 440.160143,98.116813 441.201281,98.745823 441.201281,98.745823 441.332788,98.828233 441.332788,98.828233 441.625950,99.014316 443.092193,99.993712 444.557999,101.054043 445.805355,102.019224 445.805355,102.019224 446.023806,102.194254 446.023806,102.194254 446.023806,102.194254 447.490049,103.413224 448.955855,104.709753 450.389331,106.051198 450.389331,106.051198 450.422099,106.082556 450.715260,106.366149 450.715260,106.366149 451.887905,107.530277 453.354148,109.051491 454.819955,110.644701 454.954520,110.794368 454.954520,110.794368 455.406277,111.301789 455.406277,111.301789 456.286198,112.308326 457.752004,114.040734 459.217811,115.840204 459.501797,116.196399 459.501797,116.196399 460.097731,116.951345 460.097731,116.951345 460.684054,117.704968 462.149860,119.633182 463.616103,121.622945 464.033345,122.200613 464.033345,122.200613 464.788749,123.257753 464.788749,123.257753 465.081910,123.672295 466.548153,125.779207 468.013959,127.941600 468.550475,128.746594 468.550475,128.746594 469.480203,130.157339 469.480203,130.157339 469.480203,130.157339 470.946009,132.424247 472.411815,134.740075 473.054935,135.770717 473.054935,135.770717 473.878059,137.102548 474.171220,137.580434 474.171220,137.580434 475.343865,139.509327 476.810108,141.958039 477.548473,143.206662 477.548473,143.206662 478.275915,144.446268 478.862237,145.452073 478.862237,145.452073 479.742158,146.971557 481.207964,149.531415 482.032835,150.985882 482.032835,150.985882 482.674208,152.123314 483.553691,153.692774 483.553691,153.692774 484.140014,154.744701 485.605820,157.392985 486.509771,159.038030 486.509771,159.038030 487.072064,160.065552 488.244709,162.219319 488.244709,162.219319 488.537870,162.759766 490.004113,165.472968 490.981463,167.291432 490.981463,167.291432 491.469920,168.202480 492.936163,170.945609 492.936163,170.945609 492.936163,170.945609 494.401969,173.699647 495.449660,175.673335 495.449660,175.673335 495.868213,176.461876 497.334019,179.229571 497.627180,179.783526 497.627180,179.783526 498.799825,182.000000 499.916547,184.110413 499.916547,184.110413 500.266069,184.770429 501.731875,187.538124 502.318197,188.643824 502.318197,188.643824 503.198118,190.300353 504.383870,192.529121 504.383870,192.529121 504.663925,193.054391 506.130168,195.797520 507.009652,197.437034 507.009652,197.437034 507.595974,198.527032 508.853815,200.855900 508.853815,200.855900 509.062217,201.240234 510.528024,203.934448 511.700669,206.074359 511.700669,206.074359 511.993830,206.607015 513.327692,209.017696 513.327692,209.017696 513.460073,209.255299 514.925880,211.876686 516.392123,214.468585 516.392123,214.468585 516.392123,214.468585 517.808123,216.942282 517.808123,216.942282 517.857929,217.028443 519.324173,219.553732 520.789979,222.041961 521.083140,222.534943 521.083140,222.534943 522.255785,224.490673 522.296854,224.558551 522.296854,224.558551 523.722029,226.897452 525.187835,229.259925 525.774594,230.191982 525.774594,230.191982 526.654078,231.575753 526.795635,231.797024 526.795635,231.797024 528.119885,233.842661 529.586128,236.058400 530.465612,237.362376 530.465612,237.362376 531.051934,238.220793 531.306211,238.590217 531.306211,238.590217 532.518178,240.327705 533.983984,242.377055 535.156629,243.973725 535.156629,243.973725 535.449790,244.366818 535.830332,244.873073 535.830332,244.873073 536.916034,246.295032 538.381840,248.159796 539.848083,249.959266 539.848083,249.959266 539.848083,249.959266 540.369744,250.583527 540.369744,250.583527 541.313890,251.691674 542.780133,253.355299 544.245939,254.948509 544.539100,255.258559 544.539100,255.258559 544.925759,255.662957 544.925759,255.662957 545.712182,256.469723 547.177989,257.917444 548.643795,259.290247 549.230555,259.818086 549.230555,259.818086 549.500123,260.056773 549.500123,260.056773 550.110038,260.586776 551.575845,261.805746 553.042088,262.945957 553.921572,263.591808 553.921572,263.591808 554.094148,263.715046 554.094148,263.715046 554.507894,264.006288 555.974138,264.985684 557.439944,265.883187 558.612589,266.541621 558.612589,266.541621 558.708708,266.593116 558.708708,266.593116 558.906187,266.697905 560.371994,267.429036 561.837800,268.075856 563.304043,268.637738 563.304043,268.637738 563.304043,268.637738 563.345112,268.652279 563.345112,268.652279 564.769850,269.114110 566.236093,269.504517 567.701899,269.808567 567.995061,269.858985 567.995061,269.858985 568.004236,269.860482 568.004236,269.860482 569.168143,270.025957 570.633949,270.156479 572.100192,270.200000 572.686515,270.193035 572.686515,270.193035 572.686515,270.193030 572.686515,270.193030 573.565999,270.156479 573.612747,270.153653 573.612747,270.153653 575.031805,270.025957 576.498048,269.808567 577.377532,269.636520 577.377532,269.636520 577.392824,269.633301 577.392824,269.633301 577.963855,269.504517 579.430098,269.114110 580.895904,268.637738 582.068986,268.195046 582.068986,268.195046 582.122725,268.173395 582.122725,268.173395 582.362147,268.075856 583.827954,267.429036 585.294197,266.697905 586.760003,265.883187 586.760003,265.883187 586.760003,265.883187 586.876656,265.814808 586.876656,265.814808 588.225810,264.985684 589.692053,264.006288 591.157859,262.945957 591.451021,262.724272 591.451021,262.724272 591.654180,262.568964 591.654180,262.568964 592.624103,261.805746 594.089909,260.586776 595.556152,259.290247 596.142475,258.750207 596.142475,258.750207 596.454860,258.457664 596.454860,258.457664 597.021959,257.917444 598.488202,256.469723 599.954008,254.948509 600.833492,254.001121 600.833492,254.001121 601.277385,253.513427 601.277385,253.513427 601.419815,253.355299 602.886058,251.691674 604.351864,249.959266 605.524946,248.524969 605.524946,248.524969 605.818108,248.159796 606.120881,247.779612 606.120881,247.779612 607.283914,246.295032 608.750157,244.366818 610.215964,242.377055 610.215964,242.377055 610.215964,242.377055 610.984474,241.310343 610.984474,241.310343 611.682207,240.327705 613.148013,238.220793 614.613820,236.058400 614.907418,235.619453 614.907418,235.619453 615.865544,234.170297 615.865544,234.170297 616.080063,233.842661 617.545869,231.575753 619.012113,229.259925 619.598435,228.320401 619.598435,228.320401 620.477919,226.897452 620.762342,226.434079 620.762342,226.434079 621.944162,224.490673 623.409969,222.041961 624.289452,220.553610 624.289452,220.553610 624.876212,219.553732 625.672684,218.185496 625.672684,218.185496 626.342018,217.028443 627.807825,214.468585 628.980907,212.397506 628.980907,212.397506 629.274068,211.876686 630.594823,209.516492 630.594823,209.516492 630.739874,209.255299 632.206117,206.607015 633.671924,203.934448 633.671924,203.934448 633.671924,203.934448 635.138167,201.240234 635.524825,200.525880 635.524825,200.525880 636.603973,198.527032 638.070217,195.797520 638.363378,195.249897 638.363378,195.249897 639.536023,193.054391 640.460945,191.317778 640.460945,191.317778 641.001829,190.300353 642.468073,187.538124 643.054395,186.431549 643.054395,186.431549 643.933879,184.770429 645.400122,182.000000 645.400122,181.999997 645.400122,181.999997 646.865929,179.229571 647.745413,177.568451 647.745413,177.568451 648.332172,176.461876 649.797978,173.699647 650.338863,172.682226 650.338863,172.682226 651.263785,170.945609 652.436867,168.750103 652.436867,168.750103 652.730028,168.202480 654.195834,165.472968 655.274982,163.474122 655.274982,163.474122 655.662078,162.759766 657.127884,160.065552 657.127884,160.065552 657.127884,160.065552 658.594127,157.392985 660.059934,154.744701 660.205422,154.483502 660.205422,154.483502 661.526177,152.123314 661.819338,151.602494 661.819338,151.602494 662.991983,149.531415 664.457790,146.971557 665.127124,145.814509 665.127124,145.814509 665.924033,144.446268 666.510355,143.446390 666.510355,143.446390 667.389839,141.958039 668.856082,139.509327 670.037903,137.565921 670.037903,137.565921 670.321889,137.102548 671.201810,135.679599 671.201810,135.679599 671.788132,134.740075 673.253938,132.424247 674.720182,130.157339 674.934701,129.829703 674.934701,129.829703 675.892827,128.380547 675.892827,128.380547 676.185988,127.941600 677.651794,125.779207 679.118038,123.672295 679.815770,122.689657 679.815770,122.689657 680.583844,121.622945 680.583844,121.622945 680.583844,121.622945 682.050087,119.633182 683.515894,117.704968 684.678927,116.220388 684.678927,116.220388 684.982137,115.840204 685.275298,115.475031 685.275298,115.475031 686.447943,114.040734 687.914187,112.308326 689.379993,110.644701 689.522423,110.486573 689.522423,110.486573 689.966316,109.998879 689.966316,109.998879 690.845799,109.051491 692.312043,107.530277 693.777849,106.082556 694.345385,105.542336 694.345385,105.542336 694.657770,105.249793 694.657770,105.249793 695.244092,104.709753 696.709899,103.413224 698.176142,102.194254 699.146064,101.431036 699.146064,101.431036 699.348787,101.275728 699.348787,101.275728 699.641948,101.054043 701.108192,99.993712 702.573998,99.014316 703.923588,98.185192 703.923588,98.185192 704.039804,98.116813 704.039804,98.116813 704.039804,98.116813 705.506048,97.302095 706.971854,96.570964 708.438097,95.924144 708.677519,95.826605 708.677519,95.826605 708.731258,95.804954 708.731258,95.804954 709.903904,95.362262 711.370147,94.885890 712.835953,94.495483 713.407421,94.366699 713.407421,94.366699 713.422276,94.363480 713.422276,94.363480 714.302196,94.191433 714.918228,94.089487 714.918228,94.089487 715.768003,93.974043 717.233809,93.843521 718.113293,93.806970 718.113293,93.806970 718.113730,93.806965 718.113730,93.806965 718.700052,93.800000 720.165859,93.843521 721.632102,93.974043 722.795572,94.139518 722.795572,94.139518 722.804747,94.141015 722.804747,94.141015 723.097908,94.191433 724.564152,94.495483 726.029958,94.885890 727.454696,95.347721 727.454696,95.347721 727.496201,95.362262 727.496201,95.362262 727.496201,95.362262 728.962008,95.924144 730.427814,96.570964 731.894057,97.302095 732.091100,97.406884 732.091100,97.406884 732.187219,97.458379 732.187219,97.458379 733.359864,98.116813 734.826107,99.014316 736.291913,99.993712 736.706096,100.284954 736.706096,100.284954 736.878236,100.408192 736.878236,100.408192 737.758157,101.054043 739.223963,102.194254 740.690206,103.413224 741.299685,103.943227 741.299685,103.943227 741.569690,104.181914 741.569690,104.181914 742.156013,104.709753 743.621819,106.082556 745.088062,107.530277 745.874049,108.337043 745.874049,108.337043 746.260707,108.741441 746.260707,108.741441 746.553869,109.051491 748.020112,110.644701 749.485918,112.308326 750.430500,113.416473 750.430500,113.416473 750.952161,114.040734 750.952161,114.040734 750.952161,114.040734 752.417968,115.840204 753.884211,117.704968 754.969476,119.126927 754.969476,119.126927 755.350017,119.633182 755.643179,120.026275 755.643179,120.026275 756.815824,121.622945 758.282067,123.672295 759.493596,125.409789 759.493596,125.409789 759.747873,125.779207 760.334196,126.637624 760.334196,126.637624 761.214117,127.941600 762.679923,130.157339 764.004173,132.202976 764.004173,132.202976 764.146166,132.424247 765.025650,133.808018 765.025650,133.808018 765.611973,134.740075 767.078216,137.102548 768.502954,139.441452 768.502954,139.441452 768.544022,139.509327 769.716667,141.465057 769.716667,141.465057 770.009829,141.958039 771.476072,144.446268 772.941878,146.971557 772.991685,147.057718 772.991685,147.057718 774.408122,149.531415 774.408122,149.531415 774.408122,149.531415 775.873928,152.123314 777.340171,154.744701 777.472116,154.982293 777.472116,154.982293 778.805978,157.392985 779.099139,157.925641 779.099139,157.925641 780.271784,160.065552 781.738027,162.759766 781.946430,163.144102 781.946430,163.144102 783.203834,165.472968 783.790593,166.562966 783.790593,166.562966 784.670077,168.202480 786.135883,170.945609 786.415937,171.470886 786.415937,171.470886 787.602127,173.699647 788.481610,175.356176 788.481610,175.356176 789.067933,176.461876 790.534176,179.229571 790.883261,179.889576 790.883261,179.889576 791.999983,182.000000 793.172628,184.216474"/>
	<polyline fill="none" stroke="rgb(238,46,47)" stroke-width="1" stroke-opacity="1" clip-path="url(#clipArea1)" points="58.999808,226.797782 60.466051,237.543557 61.345535,244.118743 61.345535,244.118743 61.931857,240.035633 63.398101,230.031991 63.938985,226.407151 63.938985,226.407151 64.863907,233.751981 66.036989,243.215582 66.036989,243.215582 66.330150,241.343966 67.795957,232.166918 68.875105,225.585424 68.875105,225.585424 69.262200,228.887025 70.728006,241.560430 70.728006,241.560430 70.728006,241.560430 72.193813,233.180246 73.660056,225.072098 73.805544,224.283725 73.805544,224.283725 75.125862,236.432108 75.419024,239.156596 75.419024,239.156596 76.592106,233.105957 78.057912,225.781813 78.727246,222.527869 78.727246,222.527869 79.524155,230.304750 80.110478,236.074152 80.110478,236.074152 80.989962,232.012844 82.456205,225.445929 83.637588,220.333795 83.637588,220.333795 83.922011,223.260166 84.801495,232.367940 84.801495,232.367940 85.387818,229.959642 86.854061,224.111041 88.319867,218.494153 88.534823,217.691172 88.534823,217.691172 89.492949,228.090044 89.492949,228.090044 89.786110,227.027086 91.251917,221.848505 92.718160,216.888614 93.415893,214.604556 93.415893,214.604556 94.183966,223.308829 94.183966,223.308829 94.183966,223.308829 95.650210,218.759460 97.116016,214.412131 98.279049,211.098813 98.279049,211.098813 98.581822,214.659779 98.874984,218.112645 98.874984,218.112645 100.048066,214.943535 101.513872,211.138156 102.980115,207.506177 103.122545,207.161778 103.122545,207.161778 103.566438,212.553737 103.566438,212.553737 104.445922,210.493410 105.912165,207.185282 107.377971,204.032469 107.945507,202.848998 107.945507,202.848998 108.257455,206.747129 108.257455,206.747129 108.844215,205.556595 110.310021,202.672680 111.775827,199.921629 112.745750,198.166579 112.745750,198.166579 112.948909,200.756285 112.948909,200.756285 113.242071,200.238529 114.707877,197.713995 116.174120,195.292191 117.523274,193.148149 117.523274,193.148149 117.639927,194.662112 117.639927,194.662112 117.639927,194.662112 119.106170,192.426552 120.571976,190.266752 122.037783,188.177495 122.277205,187.842636 122.277205,187.842636 122.331381,188.551066 122.331381,188.551066 123.504026,186.936177 124.969832,184.963116 126.436075,183.035144 127.007543,182.294136 127.007543,182.294136 127.022398,182.493784 127.022398,182.493784 127.403814,182.002131 127.403814,182.002131 127.901882,181.362823 129.368125,179.499265 130.833931,177.654785 131.713415,176.553856 131.713415,176.553856 131.713415,176.556318 131.713415,176.556318 132.300175,175.823633 133.765981,173.991472 135.231787,172.152090 136.395695,170.679942 136.395695,170.679942 136.404869,170.799763 136.404869,170.799763 136.698031,170.427063 138.163837,168.546407 139.630080,166.633567 141.054818,164.735987 141.054818,164.735987 141.095887,165.278959 141.095887,165.278959 141.095887,165.278959 142.562130,163.272851 144.027936,161.210916 145.494180,159.081871 145.691222,158.789815 145.691222,158.789815 145.787341,160.041875 145.787341,160.041875 146.959986,158.268481 148.425792,155.973518 149.892036,153.592793 150.305782,152.903024 150.305782,152.903024 150.478358,155.120271 150.478358,155.120271 151.357842,153.614534 152.824085,151.016794 154.289892,148.311489 154.899807,147.150468 154.899807,147.150468 155.169812,150.551679 155.169812,150.551679 155.756135,149.400216 157.221941,146.427779 158.688185,143.318819 159.474171,141.593354 159.474171,141.593354 159.860830,146.350047 159.860830,146.350047 160.153991,145.686771 161.619797,142.273023 163.086041,138.703104 164.030186,136.320183 164.030186,136.320183 164.551847,142.554632 164.551847,142.554632 164.551847,142.554632 166.018090,138.637414 167.483897,134.535308 168.569598,131.386593 168.569598,131.386593 168.950140,135.787968 169.243301,139.170759 169.243301,139.170759 170.415946,135.567965 171.882189,130.882520 173.093719,126.857454 173.093719,126.857454 173.347996,129.692536 173.934318,136.204328 173.934318,136.204328 174.813802,133.118782 176.280045,127.803659 177.604296,122.808270 177.604296,122.808270 177.745852,124.323899 178.625773,133.675387 178.625773,133.675387 179.212095,131.337330 180.677901,125.333795 182.103076,119.274239 182.103076,119.274239 182.144145,119.692914 183.316790,131.581143 183.316790,131.581143 183.609951,130.264679 185.076194,123.528824 186.542001,116.549638 186.591808,116.308517 186.591808,116.308517 188.007807,129.913576 188.007807,129.913576 188.007807,129.913576 189.474050,122.423212 190.939857,114.678560 191.072238,113.967583 191.072238,113.967583 192.406100,126.058993 192.699261,128.687120 192.699261,128.687120 193.871906,122.042826 195.338150,113.503991 195.546115,112.269112 195.546115,112.269112 196.803956,122.974305 197.390279,127.898651 197.390279,127.898651 198.270199,122.406412 199.736006,113.053566 200.016060,111.237436 200.016060,111.237436 201.201812,120.664948 202.081733,127.541542 202.081733,127.541542 202.668055,123.541105 204.133862,113.347382 204.483383,110.877580 204.483383,110.877580 205.600105,119.117484 206.772750,127.595734 206.772750,127.595734 207.065911,125.424088 208.532154,114.408890 208.950270,111.219470 208.950270,111.219470 209.997961,118.353420 211.464204,128.097458 211.464204,128.097458 211.464204,128.097458 212.930010,116.247557 213.418467,112.242370 213.418467,112.242370 214.395817,118.348726 215.862060,127.265609 216.155221,129.015905 216.155221,129.015905 217.327866,118.859394 217.890159,113.936192 217.890159,113.936192 218.794110,119.080283 220.259916,127.187484 220.846239,130.357592 220.846239,130.357592 221.726159,122.245681 222.367095,116.277047 222.367095,116.277047 223.191966,120.521842 224.658209,127.852860 225.537693,132.123045 225.537693,132.123045 226.124015,126.395791 226.851457,119.238586 226.851457,119.238586 227.589822,122.648806 229.056065,129.224805 230.228710,134.307538 230.228710,134.307538 230.521871,131.291258 231.344995,122.776839 231.344995,122.776839 231.988115,125.423903 233.453921,131.279903 234.920164,136.904361 234.920164,136.904361 234.920164,136.904361 235.849455,126.843911 235.849455,126.843911 236.385971,128.799418 237.852214,133.985909 239.318020,138.951659 239.611182,139.919823 239.611182,139.919823 240.366585,131.396905 240.366585,131.396905 240.783827,132.733428 242.250070,137.291466 243.715876,141.656930 244.302199,143.348859 244.302199,143.348859 244.898133,136.375979 244.898133,136.375979 245.182120,137.170145 246.647926,141.156120 248.114169,144.964455 248.993653,147.168813 248.993653,147.168813 249.445410,141.705856 249.445410,141.705856 249.579976,142.032993 251.045782,145.502673 252.512025,148.814926 253.684670,151.355148 253.684670,151.355148 253.977832,147.713788 254.010599,147.308468 254.010599,147.308468 255.444075,150.265080 256.909881,153.158526 258.376124,155.923400 258.376124,155.923400 258.376124,155.923400 258.594575,153.147008 258.594575,153.147008 259.841931,155.387936 261.308174,157.917400 262.773980,160.347491 263.067142,160.821771 263.067142,160.821771 263.198649,159.120872 263.198649,159.120872 264.239787,160.765723 265.706030,163.009640 267.171836,165.178190 267.758596,166.025338 267.758596,166.025338 267.824131,165.163510 267.824131,165.163510 268.638080,166.317940 270.103886,168.353276 271.570129,170.335389 272.449613,171.502306 272.449613,171.502306 272.471895,171.208520 272.471895,171.208520 273.035936,171.948601 274.502179,173.846072 275.967985,175.717002 277.140630,177.200557 277.140630,177.200557 277.142378,177.178469 277.142378,177.178469 277.433792,177.545859 278.900035,179.388484 280.365841,181.229433 280.976630,181.997869 280.976630,181.997869 281.832085,183.077033 281.832085,183.077033 281.832085,183.077033 281.836454,183.015395 281.836454,183.015395 283.297891,184.873020 284.764134,186.760419 286.229941,188.680666 286.523102,189.069418 286.523102,189.069418 286.554559,188.653460 286.554559,188.653460 287.696184,190.186551 289.161990,192.198576 290.627797,194.269047 291.214556,195.115532 291.214556,195.115532 291.296694,194.038849 291.296694,194.038849 292.094040,195.212755 293.559846,197.426901 295.026089,199.723787 295.905573,201.145362 295.905573,201.145362 296.062421,199.121891 296.062421,199.121891 296.491896,199.833740 297.958139,202.327319 299.423945,204.925126 300.596591,207.086033 300.596591,207.086033 300.851741,203.862577 300.851741,203.862577 300.890189,203.935312 302.355995,206.781299 303.821801,209.758360 305.288045,212.876704 305.288045,212.876704 305.288045,212.876704 305.663344,208.240067 305.663344,208.240067 306.753851,210.682998 308.220094,214.099453 309.685901,217.670239 309.979062,218.404137 309.979062,218.404137 310.496791,212.196302 310.496791,212.196302 311.152144,213.894563 312.617950,217.818641 314.084194,221.915328 314.670516,223.605549 314.670516,223.605549 315.350336,215.723769 315.350336,215.723769 315.550000,216.319813 317.015806,220.806028 318.482050,225.493495 319.361533,228.409405 319.361533,228.409405 319.947856,221.866701 320.222667,218.814577 320.222667,218.814577 321.414099,222.981210 322.879906,228.304577 324.052988,232.721993 324.052988,232.721993 324.346149,229.585676 325.112038,221.440588 325.112038,221.440588 325.811955,224.231950 327.278199,230.244474 328.744005,236.487522 328.744005,236.487522 328.744005,236.487522 330.015827,223.607316 330.015827,223.607316 330.209811,224.479834 331.676055,231.215476 333.141861,238.200769 333.435022,239.625493 333.435022,239.625493 334.608104,228.380865 334.932722,225.300658 334.932722,225.300658 336.073911,231.160841 337.540154,238.917342 338.126476,242.090669 338.126476,242.090669 339.005960,234.143616 339.858793,226.533572 339.858793,226.533572 340.472203,230.032911 341.938010,238.588703 342.817494,243.845513 342.817494,243.845513 343.403816,238.878066 344.792291,227.299716 344.792291,227.299716 344.870059,227.787931 346.335866,237.165207 347.508948,244.860085 347.508948,244.860085 347.802109,242.546522 349.267915,231.156422 349.730158,227.620693 349.730158,227.620693 350.734159,234.628999 352.199965,245.090008 352.199965,245.090008 352.199965,245.090008 353.666208,234.513208 354.669772,227.437635 354.669772,227.437635 355.132015,230.944550 356.597821,242.239321 356.890982,244.530022 356.890982,244.530022 358.064064,236.761453 359.529871,227.312042 359.607639,226.820448 359.607639,226.820448 360.996114,238.319134 361.582436,243.249492 361.582436,243.249492 362.461920,237.929775 363.928164,229.286869 364.541137,225.754277 364.541137,225.754277 365.393970,233.315322 366.273454,241.204017 366.273454,241.204017 366.860213,237.989121 368.326020,230.142500 369.467645,224.218248 369.467645,224.218248 369.791826,227.281357 370.964908,238.450666 370.964908,238.450666 371.258069,237.003786 372.723876,229.929063 374.190119,223.114242 374.384103,222.232281 374.384103,222.232281 375.655925,235.043850 375.655925,235.043850 375.655925,235.043850 377.122168,228.720016 378.587975,222.635064 379.287892,219.815470 379.287892,219.815470 380.054218,227.926778 380.347379,231.047321 380.347379,231.047321 381.520024,226.565269 382.985831,221.161483 384.177263,216.942021 384.177263,216.942021 384.452074,219.982843 385.038397,226.499161 385.038397,226.499161 385.917880,223.546190 387.384124,218.788575 388.849930,214.241373 389.049594,213.638427 389.049594,213.638427 389.729414,221.495635 389.729414,221.495635 390.316173,219.777117 391.781980,215.608121 393.247786,211.630086 393.903139,209.911694 393.903139,209.911694 394.420868,216.101803 394.420868,216.101803 394.714029,215.355173 396.179836,211.722549 397.646079,208.262750 398.736586,205.792224 398.736586,205.792224 399.111885,210.416558 399.111885,210.416558 399.111885,210.416558 400.578129,207.256900 402.043935,204.236634 403.510178,201.352577 403.548626,201.278743 403.548626,201.278743 403.803340,204.496227 403.803340,204.496227 404.975985,202.301163 406.441791,199.664481 407.908034,197.143088 408.337509,196.423967 408.337509,196.423967 408.494357,198.444077 408.494357,198.444077 409.373841,197.005551 410.840084,194.681572 412.305890,192.445212 413.103236,191.261281 413.103236,191.261281 413.185811,192.336716 413.185811,192.336716 413.772134,191.481289 415.237940,189.391100 416.704183,187.363335 417.845371,185.822546 417.845371,185.822546 417.876828,186.238270 417.876828,186.238270 418.169990,185.847680 419.635796,183.919310 421.102039,182.027210 421.121700,182.002131 421.121700,182.002131 422.563476,180.168885 422.563476,180.168885 422.567846,180.230526 422.567846,180.230526 422.567846,180.230526 424.034089,178.386069 425.499895,176.551379 426.966138,174.718200 427.257552,174.353053 427.257552,174.353053 427.259300,174.375157 427.259300,174.375157 428.431945,172.902112 429.898188,171.045134 431.363994,169.163777 431.928035,168.432139 431.928035,168.432139 431.950317,168.726290 431.950317,168.726290 432.829801,167.572373 434.296044,165.615083 435.761850,163.610716 436.575799,162.473499 436.575799,162.473499 436.641771,163.336881 436.641771,163.336881 437.228094,162.502334 438.693900,160.366515 440.160143,158.158780 441.201281,156.542155 441.201281,156.542155 441.332788,158.246948 441.332788,158.246948 441.625950,157.781208 443.092193,155.390543 444.557999,152.908065 445.805355,150.711984 445.805355,150.711984 446.023806,153.496191 446.023806,153.496191 446.023806,153.496191 447.490049,150.785082 448.955855,147.954587 450.389331,145.059095 450.389331,145.059095 450.422099,145.465873 450.715260,149.118844 450.715260,149.118844 451.887905,146.615617 453.354148,143.357131 454.819955,139.950146 454.954520,139.629203 454.954520,139.629203 455.406277,145.113371 455.406277,145.113371 456.286198,142.952096 457.752004,139.208992 459.217811,135.300146 459.501797,134.522910 459.501797,134.522910 460.097731,141.524282 460.097731,141.524282 460.684054,139.861532 462.149860,135.580964 463.616103,131.109841 464.033345,129.800616 464.033345,129.800616 464.788749,138.367806 464.788749,138.367806 465.081910,137.415200 466.548153,132.526479 468.013959,127.422981 468.550475,125.502006 468.550475,125.502006 469.480203,135.619732 469.480203,135.619732 469.480203,135.619732 470.946009,130.075215 472.411815,124.303274 473.054935,121.698625 473.054935,121.698625 473.878059,130.267691 474.171220,133.301052 474.171220,133.301052 475.343865,128.289014 476.810108,121.812527 477.548473,118.452876 477.548473,118.452876 478.275915,125.662748 478.862237,131.425274 478.862237,131.425274 479.742158,127.200628 481.207964,119.974281 482.032835,115.793105 482.032835,115.793105 482.674208,121.809421 483.553691,129.974660 483.553691,129.974660 484.140014,126.840401 485.605820,118.834132 486.509771,113.769500 486.509771,113.769500 487.072064,118.738337 488.244709,128.971229 488.244709,128.971229 488.537870,127.240745 490.004113,118.424418 490.981463,112.397134 490.981463,112.397134 491.469920,116.443632 492.936163,128.387607 492.936163,128.387607 492.936163,128.387607 494.401969,118.743726 495.449660,111.685164 495.449660,111.685164 495.868213,114.913805 497.334019,126.048321 497.627180,128.240671 497.627180,128.240671 498.799825,119.842542 499.916547,111.682114 499.916547,111.682114 500.266069,114.179999 501.731875,124.477138 502.318197,128.518623 502.318197,128.518623 503.198118,121.702125 504.383870,112.369304 504.383870,112.369304 504.663925,114.211929 506.130168,123.676854 507.009652,129.219377 507.009652,129.219377 507.595974,124.337486 508.853815,113.727398 508.853815,113.727398 509.062217,114.979660 510.528024,123.633614 511.700669,130.353734 511.700669,130.353734 511.993830,127.744319 513.327692,115.748401 513.327692,115.748401 513.460073,116.470263 514.925880,124.326523 516.392123,131.910500 516.392123,131.910500 516.392123,131.910500 517.808123,118.408195 517.808123,118.408195 517.857929,118.652810 519.324173,125.734895 520.789979,132.552751 521.083140,133.887400 521.083140,133.887400 522.255785,122.080571 522.296854,121.664997 522.296854,121.664997 523.722029,127.819433 525.187835,133.910929 525.774594,136.281522 525.774594,136.281522 526.654078,126.979638 526.795635,125.473732 526.795635,125.473732 528.119885,130.549064 529.586128,135.959225 530.465612,139.097770 530.465612,139.097770 531.051934,132.618074 531.306211,129.797790 531.306211,129.797790 532.518178,133.896080 533.983984,138.655807 535.156629,142.317716 535.156629,142.317716 535.449790,138.950523 535.830332,134.571909 535.830332,134.571909 536.916034,137.786115 538.381840,141.956569 539.848083,145.945553 539.848083,145.945553 539.848083,145.945553 540.369744,139.735265 540.369744,139.735265 541.313890,142.169532 542.780133,145.804264 544.245939,149.279577 544.539100,149.955496 544.539100,149.955496 544.925759,145.215623 544.925759,145.215623 545.712182,146.974131 547.177989,150.135769 548.643795,153.160060 549.230555,154.332332 549.230555,154.332332 549.500123,150.941756 549.500123,150.941756 550.110038,152.127287 551.575845,154.888360 553.042088,157.528210 553.921572,159.056675 553.921572,159.056675 554.094148,156.844971 554.094148,156.844971 554.507894,157.549107 555.974138,159.974781 557.439944,162.305955 558.612589,164.107337 558.612589,164.107337 558.708708,162.857887 558.708708,162.857887 558.906187,163.155404 560.371994,165.319775 561.837800,167.416848 563.304043,169.451586 563.304043,169.451586 563.304043,169.451586 563.345112,168.909454 563.345112,168.909454 564.769850,170.832162 566.236093,172.768281 567.701899,174.667851 567.995061,175.044130 567.995061,175.044130 568.004236,174.924419 568.004236,174.924419 569.168143,176.407363 570.633949,178.259810 572.100192,180.101745 572.686515,180.837473 572.686515,180.837473 572.686515,180.835011 572.686515,180.835011 573.565999,181.939059 573.612747,181.997869 573.612747,181.997869 575.031805,183.785904 576.498048,185.648317 577.377532,186.776932 577.377532,186.776932 577.392824,186.577230 577.392824,186.577230 577.963855,187.316201 579.430098,189.236218 580.895904,191.197343 582.068986,192.801943 582.068986,192.801943 582.122725,192.092928 582.122725,192.092928 582.362147,192.425337 583.827954,194.499883 585.294197,196.641618 586.760003,198.854171 586.760003,198.854171 586.760003,198.854171 586.876656,197.338195 586.876656,197.338195 588.225810,199.460833 589.692053,201.856399 591.157859,204.347259 591.451021,204.857550 591.451021,204.857550 591.654180,202.263355 591.654180,202.263355 592.624103,203.999227 594.089909,206.722136 595.556152,209.560195 596.142475,210.731130 596.142475,210.731130 596.454860,206.824290 596.454860,206.824290 597.021959,207.992530 598.488202,211.104092 599.954008,214.359422 600.833492,216.385287 600.833492,216.385287 601.277385,210.978653 601.277385,210.978653 601.419815,211.317910 602.886058,214.894446 604.351864,218.638762 605.524946,221.762997 605.524946,221.762997 605.818108,218.298425 606.120881,214.726594 606.120881,214.726594 607.283914,217.999220 608.750157,222.290734 610.215964,226.768157 610.215964,226.768157 610.215964,226.768157 610.984474,218.031287 610.984474,218.031287 611.682207,220.288155 613.148013,225.180911 614.613820,230.287653 614.907418,231.335922 614.907418,231.335922 615.865544,220.888898 615.865544,220.888898 616.080063,221.682519 617.545869,227.229245 619.012113,233.003803 619.598435,235.377911 619.598435,235.377911 620.477919,226.223348 620.762342,223.283140 620.762342,223.283140 621.944162,228.337101 623.409969,234.825686 624.289452,238.839245 624.289452,238.839245 624.876212,233.036434 625.672684,225.222160 625.672684,225.222160 626.342018,228.446267 627.807825,235.694399 628.980907,241.668994 628.980907,241.668994 629.274068,238.924576 630.594823,226.702907 630.594823,226.702907 630.739874,227.484030 632.206117,235.504537 633.671924,243.777100 633.671924,243.777100 633.671924,243.777100 635.138167,231.012621 635.524825,227.690841 635.524825,227.690841 636.603973,234.213515 638.070217,243.315241 638.363378,245.165223 638.363378,245.165223 639.536023,235.628768 640.460945,228.241407 640.460945,228.241407 641.001829,231.834236 642.468073,241.756590 643.054395,245.795883 643.054395,245.795883 643.933879,239.157785 645.400122,228.313409 645.400122,228.313397 645.400122,228.313397 646.865929,239.057650 647.745413,245.631922 647.745413,245.631922 648.332172,241.551391 649.797978,231.548377 650.338863,227.924392 650.338863,227.924392 651.263785,235.270088 652.436867,244.735406 652.436867,244.735406 652.730028,242.863795 654.195834,233.677635 655.274982,227.091321 655.274982,227.091321 655.662078,230.392661 657.127884,243.067676 657.127884,243.067676 657.127884,243.067676 658.594127,234.691159 660.059934,226.585605 660.205422,225.796631 660.205422,225.796631 661.526177,237.949974 661.819338,240.673240 661.819338,240.673240 662.991983,234.624659 664.457790,227.304079 665.127124,224.050558 665.127124,224.050558 665.924033,231.826727 666.510355,237.594693 666.510355,237.594693 667.389839,233.529600 668.856082,226.954296 670.037903,221.841209 670.037903,221.841209 670.321889,224.766795 671.201810,233.873699 671.201810,233.873699 671.788132,231.464067 673.253938,225.607114 674.720182,219.986578 674.934701,219.182374 674.934701,219.182374 675.892827,229.583607 675.892827,229.583607 676.185988,228.521013 677.651794,223.338235 679.118038,218.374924 679.815770,216.089584 679.815770,216.089584 680.583844,224.795388 680.583844,224.795388 680.583844,224.795388 682.050087,220.239015 683.515894,215.883005 684.678927,212.568328 684.678927,212.568328 684.982137,216.129650 685.275298,219.582359 685.275298,219.582359 686.447943,216.412904 687.914187,212.606162 689.379993,208.972726 689.522423,208.628209 689.522423,208.628209 689.966316,214.018931 689.966316,214.018931 690.845799,211.954401 692.312043,208.639898 693.777849,205.477166 694.345385,204.292284 694.345385,204.292284 694.657770,208.190221 694.657770,208.190221 695.244092,207.000217 696.709899,204.114033 698.176142,201.355892 699.146064,199.598058 699.146064,199.598058 699.348787,202.187444 699.348787,202.187444 699.641948,201.669106 701.108192,199.144574 702.573998,196.724734 703.923588,194.580973 703.923588,194.580973 704.039804,196.094735 704.039804,196.094735 704.039804,196.094735 705.506048,193.857344 706.971854,191.698600 708.438097,189.611593 708.677519,189.276592 708.677519,189.276592 708.731258,189.984966 708.731258,189.984966 709.903904,188.366844 711.370147,186.392040 712.835953,184.462609 713.407421,183.721130 713.407421,183.721130 713.422276,183.920763 713.422276,183.920763 714.302196,182.788934 714.918228,182.002131 714.918228,182.002131 715.768003,180.923988 717.233809,179.078281 718.113293,177.976589 718.113293,177.976589 718.113730,177.979052 718.113730,177.979052 718.700052,177.245790 720.165859,175.412059 721.632102,173.570872 722.795572,172.097820 722.795572,172.097820 722.804747,172.217634 722.804747,172.217634 723.097908,171.844687 724.564152,169.961707 726.029958,168.047963 727.454696,166.148903 727.454696,166.148903 727.496201,166.691836 727.496201,166.691836 727.496201,166.691836 728.962008,164.684546 730.427814,162.621042 731.894057,160.490827 732.091100,160.198595 732.091100,160.198595 732.187219,161.450605 732.187219,161.450605 733.359864,159.674029 734.826107,157.380099 736.291913,154.993317 736.706096,154.301398 736.706096,154.301398 736.878236,156.518465 736.878236,156.518465 737.758157,155.012894 739.223963,152.415552 740.690206,149.708825 741.299685,148.547123 741.299685,148.547123 741.569690,151.947280 741.569690,151.947280 742.156013,150.795268 743.621819,147.821830 745.088062,144.711633 745.874049,142.985610 745.874049,142.985610 746.260707,147.740968 746.260707,147.740968 746.553869,147.077482 748.020112,143.661164 749.485918,140.087151 750.430500,137.699694 750.430500,137.699694 750.952161,143.935527 750.952161,143.935527 750.952161,143.935527 752.417968,140.019377 753.884211,135.915713 754.969476,132.756968 754.969476,132.756968 755.350017,137.156376 755.643179,140.536699 755.643179,140.536699 756.815824,136.935341 758.282067,132.258048 759.493596,128.231659 759.493596,128.231659 759.747873,131.066763 760.334196,137.579368 760.334196,137.579368 761.214117,134.492645 762.679923,129.173294 764.004173,124.179710 764.004173,124.179710 764.146166,125.695199 765.025650,135.051297 765.025650,135.051297 765.611973,132.715012 767.078216,126.712794 768.502954,120.653474 768.502954,120.653474 768.544022,121.072060 769.716667,132.959829 769.716667,132.959829 770.009829,131.643292 771.476072,124.916331 772.941878,117.940151 772.991685,117.699282 772.991685,117.699282 774.408122,131.299069 774.408122,131.299069 774.408122,131.299069 775.873928,123.800064 777.340171,116.050977 777.472116,115.339983 777.472116,115.339983 778.805978,127.428129 779.099139,130.055191 779.099139,130.055191 780.271784,123.401947 781.738027,114.864060 781.946430,113.630286 781.946430,113.630286 783.203834,124.332282 783.790593,129.256185 783.790593,129.256185 784.670077,123.768572 786.135883,114.409019 786.415937,112.589884 786.415937,112.589884 787.602127,122.015197 788.481610,128.890749 788.481610,128.890749 789.067933,124.889297 790.534176,114.705107 790.883261,112.239970 790.883261,112.239970 791.999983,120.474424 793.172628,128.954423"/>
	<polyline fill="none" stroke="rgb(0,140,72)" stroke-width="1" stroke-opacity="1" clip-path="url(#clipArea1)" points="58.999808,236.549576 60.466051,236.466202 61.345535,236.388531 61.345535,236.388531 61.931857,236.324329 63.398101,236.122943 63.938985,236.035240 63.938985,236.035240 64.863907,235.865577 66.036989,235.617726 66.036989,235.617726 66.330150,235.550362 67.795957,235.177311 68.875105,234.867984 68.875105,234.867984 69.262200,234.749708 70.728006,234.266019 70.728006,234.266019 70.728006,234.266019 72.193813,233.728070 73.660056,233.135705 73.805544,233.073819 73.805544,233.073819 75.125862,232.488111 75.419024,232.352137 75.419024,232.352137 76.592106,231.787356 78.057912,231.033627 78.727246,230.671835 78.727246,230.671835 79.524155,230.227136 80.110478,229.889760 80.110478,229.889760 80.989962,229.368645 82.456205,228.459888 83.637588,227.691287 83.637588,227.691287 83.922011,227.501775 84.801495,226.903612 84.801495,226.903612 85.387818,226.495263 86.854061,225.440156 88.319867,224.339013 88.534823,224.173962 88.534823,224.173962 89.492949,223.425781 89.492949,223.425781 89.786110,223.193012 91.251917,222.002178 92.718160,220.768062 93.415893,220.165601 93.415893,220.165601 94.183966,219.491928 94.183966,219.491928 94.183966,219.491928 95.650210,218.174536 97.116016,216.817345 98.279049,215.714090 98.279049,215.714090 98.581822,215.422927 98.874984,215.139530 98.874984,215.139530 100.048066,213.991757 101.513872,212.526498 102.980115,211.027366 103.122545,210.879754 103.122545,210.879754 103.566438,210.418055 103.566438,210.418055 104.445922,209.494679 105.912165,207.931312 107.377971,206.337906 107.945507,205.714211 107.945507,205.714211 108.257455,205.369008 108.257455,205.369008 108.844215,204.717700 110.310021,203.071721 111.775827,201.400386 112.745750,200.282350 112.745750,200.282350 112.948909,200.047161 112.948909,200.047161 113.242071,199.706632 114.707877,197.991909 116.174120,196.257988 117.523274,194.646247 117.523274,194.646247 117.639927,194.506261 117.639927,194.506261 117.639927,194.506261 119.106170,192.737760 120.571976,190.955614 122.037783,189.160999 122.277205,188.866977 122.277205,188.866977 122.331381,188.800716 122.331381,188.800716 123.504026,187.355161 124.969832,185.540638 126.436075,183.718939 127.007543,183.007431 127.007543,183.007431 127.022398,182.988652 127.022398,182.988652 127.403814,182.513337 127.403814,182.513337 127.901882,181.891826 129.368125,180.061105 130.833931,178.228629 131.713415,177.129288 131.713415,177.129288 131.713415,177.129056 131.713415,177.129056 132.300175,176.396218 133.765981,174.565786 135.231787,172.739013 136.395695,171.293018 136.395695,171.293018 136.404869,171.281810 136.404869,171.281810 136.698031,170.918064 138.163837,169.104314 139.630080,167.299399 141.054818,165.555201 141.054818,165.555201 141.095887,165.504983 141.095887,165.504983 141.095887,165.504983 142.562130,163.723806 144.027936,161.956351 145.494180,160.205072 145.691222,159.970729 145.691222,159.970729 145.787341,159.856911 145.787341,159.856911 146.959986,158.472284 148.425792,156.759828 149.892036,155.067282 150.305782,154.593422 150.305782,154.593422 150.478358,154.396612 150.478358,154.396612 151.357842,153.398526 152.824085,151.755189 154.289892,150.136293 154.899807,149.470900 154.899807,149.470900 155.169812,149.178147 155.169812,149.178147 155.756135,148.545898 157.221941,146.986356 158.688185,145.457403 159.474171,144.650435 159.474171,144.650435 159.860830,144.256952 159.860830,144.256952 160.153991,143.960170 161.619797,142.497900 163.086041,141.070290 164.030186,140.169168 164.030186,140.169168 164.551847,139.678530 164.551847,139.678530 164.551847,139.678530 166.018090,138.326038 167.483897,137.014298 168.569598,136.067283 168.569598,136.067283 168.950140,135.740949 169.243301,135.491385 169.243301,135.491385 170.415946,134.510848 171.882189,133.325064 173.093719,132.378236 173.093719,132.378236 173.347996,132.183198 173.934318,131.738779 173.934318,131.738779 174.813802,131.085711 176.280045,130.034953 177.604296,129.128074 177.604296,129.128074 177.745852,129.033199 178.625773,128.455660 178.625773,128.455660 179.212095,128.080293 180.677901,127.176358 182.103076,126.346427 182.103076,126.346427 182.144145,126.323212 183.316790,125.676913 183.316790,125.676913 183.609951,125.520539 185.076194,124.772008 186.542001,124.076312 186.591808,124.053769 186.591808,124.053769 188.007807,123.432581 188.007807,123.432581 188.007807,123.432581 189.474050,122.843323 190.939857,122.309193 191.072238,122.263883 191.072238,122.263883 192.406100,121.831262 192.699261,121.742107 192.699261,121.742107 193.871906,121.407899 195.338150,121.040719 195.546115,120.993290 195.546115,120.993290 196.803956,120.731807 197.390279,120.623261 197.390279,120.623261 198.270199,120.479353 199.736006,120.282599 200.016060,120.251448 200.016060,120.251448 201.201812,120.144680 202.081733,120.088609 202.081733,120.088609 202.668055,120.063425 204.133862,120.042150 204.483383,120.045907 204.483383,120.045907 205.600105,120.078252 206.772750,120.147444 206.772750,120.147444 207.065911,120.170497 208.532154,120.319766 208.950270,120.372629 208.950270,120.372629 209.997961,120.527337 211.464204,120.791203 211.464204,120.791203 211.464204,120.791203 212.930010,121.113242 213.418467,121.232897 213.418467,121.232897 214.395817,121.490987 215.862060,121.926176 216.155221,122.019835 216.155221,122.019835 217.327866,122.417128 217.890159,122.619478 217.890159,122.619478 218.794110,122.961643 220.259916,123.563855 220.846239,123.819281 220.846239,123.819281 221.726159,124.218896 222.367095,124.522200 222.367095,124.522200 223.191966,124.926733 224.658209,125.688425 225.537693,126.171072 225.537693,126.171072 226.124015,126.502829 226.851457,126.925648 226.851457,126.925648 227.589822,127.367651 229.056065,128.283737 230.228710,129.052074 230.228710,129.052074 230.521871,129.249041 231.344995,129.812398 231.344995,129.812398 231.988115,130.262879 233.453921,131.325464 234.920164,132.434038 234.920164,132.434038 234.920164,132.434038 235.849455,133.160267 235.849455,133.160267 236.385971,133.587539 237.852214,134.785632 239.318020,136.027410 239.611182,136.280706 239.611182,136.280706 240.366585,136.940805 240.366585,136.940805 240.783827,137.310433 242.250070,138.634891 243.715876,139.997281 244.302199,140.552905 244.302199,140.552905 244.898133,141.123835 244.898133,141.123835 245.182120,141.398201 246.647926,142.836820 248.114169,144.310210 248.993653,145.209993 248.993653,145.209993 249.445410,145.677322 249.445410,145.677322 249.579976,145.816887 251.045782,147.357590 252.512025,148.928850 253.684670,150.207053 253.684670,150.207053 253.977832,150.529305 254.010599,150.565222 254.010599,150.565222 255.444075,152.156853 256.909881,153.809698 258.376124,155.487075 258.376124,155.487075 258.376124,155.487075 258.594575,155.739233 258.594575,155.739233 259.841931,157.188204 261.308174,158.910674 262.773980,160.651699 263.067142,161.002081 263.067142,161.002081 263.198649,161.159520 263.198649,161.159520 264.239787,162.411394 265.706030,164.187014 267.171836,165.976197 267.758596,166.695467 267.758596,166.695467 267.824131,166.776257 267.824131,166.776257 268.638080,167.778322 270.103886,169.590958 271.570129,171.412467 272.449613,172.508957 272.449613,172.508957 272.471895,172.536686 272.471895,172.536686 273.035936,173.241288 274.502179,175.075840 275.967985,176.913672 277.140630,178.379176 277.140630,178.379176 277.142378,178.381248 277.142378,178.381248 277.433792,178.744160 278.900035,180.564280 280.365841,182.382747 280.976630,183.141825 280.976630,183.141825 281.832085,184.207885 281.832085,184.207885 281.832085,184.207885 281.836454,184.213685 281.836454,184.213685 283.297891,186.036400 284.764134,187.857759 286.229941,189.670062 286.523102,190.031278 286.523102,190.031278 286.554559,190.070045 286.554559,190.070045 287.696184,191.471094 289.161990,193.259950 290.627797,195.034421 291.214556,195.739780 291.214556,195.739780 291.296694,195.838547 291.296694,195.838547 292.094040,196.792265 293.559846,198.532626 295.026089,200.253567 295.905573,201.276026 295.905573,201.276026 296.062421,201.457534 296.062421,201.457534 296.491896,201.952911 297.958139,203.628884 299.423945,205.281018 300.596591,206.583925 300.596591,206.583925 300.851741,206.864477 300.851741,206.864477 300.890189,206.906741 302.355995,208.503451 303.821801,210.070661 305.288045,211.606206 305.288045,211.606206 305.288045,211.606206 305.663344,211.994597 305.663344,211.994597 306.753851,213.110479 308.220094,214.580768 309.685901,216.016794 309.979062,216.299628 309.979062,216.299628 310.496791,216.794594 310.496791,216.794594 311.152144,217.414686 312.617950,218.774236 314.084194,220.095733 314.670516,220.612984 314.670516,220.612984 315.350336,221.203605 315.350336,221.203605 315.550000,221.375517 317.015806,222.613542 318.482050,223.807429 319.361533,224.501106 319.361533,224.501106 319.947856,224.955395 320.222667,225.165630 320.222667,225.165630 321.414099,226.059763 322.879906,227.117306 324.052988,227.928707 324.052988,227.928707 324.346149,228.126804 325.112038,228.634660 325.112038,228.634660 325.811955,229.086829 327.278199,229.997487 328.744005,230.857952 328.744005,230.857952 328.744005,230.857952 330.015827,231.563405 330.015827,231.563405 330.209811,231.667656 331.676055,232.425059 333.141861,233.128247 333.435022,233.262880 333.435022,233.262880 334.608104,233.779408 334.932722,233.916110 334.932722,233.916110 336.073911,234.375950 337.540154,234.916551 338.126476,235.117461 338.126476,235.117461 339.005960,235.401979 339.858793,235.658729 339.858793,235.658729 340.472203,235.831769 341.938010,236.204601 342.817494,236.401591 342.817494,236.401591 343.403816,236.521627 344.792291,236.769192 344.792291,236.769192 344.870059,236.781590 346.335866,236.982791 347.508948,237.101964 347.508948,237.101964 347.802109,237.126318 349.267915,237.212467 349.730158,237.228365 349.730158,237.228365 350.734159,237.243584 352.199965,237.217206 352.199965,237.217206 352.199965,237.217206 353.666208,237.133153 354.669772,237.042394 354.669772,237.042394 355.132015,236.991522 356.597821,236.792458 356.890982,236.745769 356.890982,236.745769 358.064064,236.534542 359.529871,236.218172 359.607639,236.199728 359.607639,236.199728 360.996114,235.845743 361.582436,235.680229 361.582436,235.680229 362.461920,235.416895 363.928164,234.933307 364.541137,234.714616 364.541137,234.714616 365.393970,234.394730 366.273454,234.045146 366.273454,234.045146 366.860213,233.801232 368.326020,233.153324 369.467645,232.611781 369.467645,232.611781 369.791826,232.451891 370.964908,231.852534 370.964908,231.852534 371.258069,231.697623 372.723876,230.891216 374.190119,230.032967 374.384103,229.915487 374.384103,229.915487 375.655925,229.123183 375.655925,229.123183 375.655925,229.123183 377.122168,228.163405 378.587975,227.156091 379.287892,226.658024 379.287892,226.658024 380.054218,226.100488 380.347379,225.883633 380.347379,225.883633 381.520024,224.998644 382.985831,223.852968 384.177263,222.887958 384.177263,222.887958 384.452074,222.661459 385.038397,222.172361 385.038397,222.172361 385.917880,221.426165 387.384124,220.150093 388.849930,218.832488 389.049594,218.649789 389.049594,218.649789 389.729414,218.022273 389.729414,218.022273 390.316173,217.474679 391.781980,216.080682 393.247786,214.649217 393.903139,213.997597 393.903139,213.997597 394.420868,213.478201 394.420868,213.478201 394.714029,213.182030 396.179836,211.681563 397.646079,210.147440 398.736586,208.985974 398.736586,208.985974 399.111885,208.582736 399.111885,208.582736 399.111885,208.582736 400.578129,206.989375 402.043935,205.369147 403.510178,203.722789 403.548626,203.679304 403.548626,203.679304 403.803340,203.390347 403.803340,203.390347 404.975985,202.051287 406.441791,200.357148 407.908034,198.641294 408.337509,198.134870 408.337509,198.134870 408.494357,197.949517 408.494357,197.949517 409.373841,196.905880 410.840084,195.152894 412.305890,193.383890 413.103236,192.415934 413.103236,192.415934 413.185811,192.315808 413.185811,192.315808 413.772134,191.601086 415.237940,189.805765 416.704183,187.999669 417.845371,186.587238 417.845371,186.587238 417.876828,186.548201 417.876828,186.548201 418.169990,186.184485 419.635796,184.362063 421.102039,182.534287 421.121700,182.509832 421.121700,182.509832 422.563476,180.708724 422.563476,180.708724 422.567846,180.702920 422.567846,180.702920 422.567846,180.702920 424.034089,178.869723 425.499895,177.036632 426.966138,175.205440 427.257552,174.841667 427.257552,174.841667 427.259300,174.839591 427.259300,174.839591 428.431945,173.378046 429.898188,171.556454 431.363994,169.742088 431.928035,169.045960 431.928035,169.045960 431.950317,169.018571 431.950317,169.018571 432.829801,167.936745 434.296044,166.142544 435.761850,164.360198 436.575799,163.376791 436.575799,163.376791 436.641771,163.297531 436.641771,163.297531 437.228094,162.592545 438.693900,160.841954 440.160143,159.108433 441.201281,157.888538 441.201281,157.888538 441.332788,157.735206 441.332788,157.735206 441.625950,157.394076 443.092193,155.702780 444.557999,154.032620 445.805355,152.630632 445.805355,152.630632 446.023806,152.386959 446.023806,152.386959 446.023806,152.386959 447.490049,150.768183 448.955855,149.176397 450.389331,147.648810 450.389331,147.648810 450.422099,147.614388 450.715260,147.305756 450.715260,147.305756 451.887905,146.085090 453.354148,144.588154 454.819955,143.124275 454.954520,142.991902 454.954520,142.991902 455.406277,142.548489 455.406277,142.548489 456.286198,141.695266 457.752004,140.304432 459.217811,138.950201 459.501797,138.692282 459.501797,138.692282 460.097731,138.157114 460.097731,138.157114 460.684054,137.636521 462.149860,136.362249 463.616103,135.129829 464.033345,134.786714 464.033345,134.786714 464.788749,134.175406 464.788749,134.175406 465.081910,133.941238 466.548153,132.797921 468.013959,131.701567 468.550475,131.311788 468.550475,131.311788 469.480203,130.650606 469.480203,130.650606 469.480203,130.650606 470.946009,129.647574 472.411815,128.694118 473.054935,128.291789 473.054935,128.291789 473.878059,127.789808 474.171220,127.614862 474.171220,127.614862 475.343865,126.935153 476.810108,126.131488 477.548473,125.747776 477.548473,125.747776 478.275915,125.381751 478.862237,125.096475 478.862237,125.096475 479.742158,124.685348 481.207964,124.040356 482.032835,123.702537 482.032835,123.702537 482.674208,123.451540 483.553691,123.124813 483.553691,123.124813 484.140014,122.917758 485.605820,122.437113 486.509771,122.168604 486.509771,122.168604 487.072064,122.013033 488.244709,121.715179 488.244709,121.715179 488.537870,121.645948 490.004113,121.335281 490.981463,121.160222 490.981463,121.160222 491.469920,121.081907 492.936163,120.887166 492.936163,120.887166 492.936163,120.887166 494.401969,120.749437 495.449660,120.686795 495.449660,120.686795 495.868213,120.669030 497.334019,120.643824 497.627180,120.645708 497.627180,120.645708 498.799825,120.677896 499.916547,120.744088 499.916547,120.744088 500.266069,120.770808 501.731875,120.920071 502.318197,120.995269 502.318197,120.995269 503.198118,121.126947 504.383870,121.335202 504.383870,121.335202 504.663925,121.389725 506.130168,121.711658 507.009652,121.932132 507.009652,121.932132 507.595974,122.089683 508.853815,122.457755 508.853815,122.457755 509.062217,122.522730 510.528024,123.012392 511.700669,123.444755 511.700669,123.444755 511.993830,123.558253 513.327692,124.101636 513.327692,124.101636 513.460073,124.157801 514.925880,124.811732 516.392123,125.520062 516.392123,125.520062 516.392123,125.520062 517.808123,126.253666 517.808123,126.253666 517.857929,126.280257 519.324173,127.092872 520.789979,127.958187 521.083140,128.137020 521.083140,128.137020 522.255785,128.872373 522.296854,128.898712 522.296854,128.898712 523.722029,129.837453 525.187835,130.850955 525.774594,131.269478 525.774594,131.269478 526.654078,131.911790 526.795635,132.016899 526.795635,132.016899 528.119885,133.020038 529.586128,134.171795 530.465612,134.884168 530.465612,134.884168 531.051934,135.368615 531.306211,135.581062 531.306211,135.581062 532.518178,136.609070 533.983984,137.891973 535.156629,138.947086 535.156629,138.947086 535.449790,139.214843 535.830332,139.564525 535.830332,139.564525 536.916034,140.577264 538.381840,141.978187 539.848083,143.414715 539.848083,143.414715 539.848083,143.414715 540.369744,143.935000 540.369744,143.935000 541.313890,144.887754 542.780133,146.395011 544.245939,147.933301 544.539100,148.244677 544.539100,148.244677 544.925759,148.657388 544.925759,148.657388 545.712182,149.503366 547.177989,151.103529 548.643795,152.730153 549.230555,153.387986 549.230555,153.387986 549.500123,153.692193 549.500123,153.692193 550.110038,154.383087 551.575845,156.060815 553.042088,157.761528 553.921572,158.792407 553.921572,158.792407 554.094148,158.995293 554.094148,158.995293 554.507894,159.483398 555.974138,161.224746 557.439944,162.983570 558.612589,164.402249 558.612589,164.402249 558.708708,164.518676 558.708708,164.518676 558.906187,164.758343 560.371994,166.547681 561.837800,168.348907 563.304043,170.160891 563.304043,170.160891 563.304043,170.160891 563.345112,170.211903 563.345112,170.211903 564.769850,171.982263 566.236093,173.810441 567.701899,175.644009 567.995061,176.011212 567.995061,176.011212 568.004236,176.022523 568.004236,176.022523 569.168143,177.481129 570.633949,179.310942 572.100192,181.130518 572.686515,181.857310 572.686515,181.857310 572.686515,181.857540 572.686515,181.857540 573.565999,182.948192 573.612747,183.006288 573.612747,183.006288 575.031805,184.772688 576.498048,186.600624 577.377532,187.694066 577.377532,187.694066 577.392824,187.712777 577.392824,187.712777 577.963855,188.421341 579.430098,190.232988 580.895904,192.033885 582.068986,193.465574 582.068986,193.465574 582.122725,193.531156 582.122725,193.531156 582.362147,193.822075 583.827954,195.594933 585.294197,197.351594 586.760003,199.091440 586.760003,199.091440 586.760003,199.091440 586.876656,199.229013 586.876656,199.229013 588.225810,200.810617 589.692053,202.508137 591.157859,204.183711 591.451021,204.516048 591.451021,204.516048 591.654180,204.745399 591.654180,204.745399 592.624103,205.834239 594.089909,207.457590 595.556152,209.054911 596.142475,209.685792 596.142475,209.685792 596.454860,210.019652 596.454860,210.019652 597.021959,210.622455 598.488202,212.159359 599.954008,213.664152 600.833492,214.550840 600.833492,214.550840 601.277385,214.993219 601.277385,214.993219 601.419815,215.134757 602.886058,216.569573 604.351864,217.967240 605.524946,219.056921 605.524946,219.056921 605.818108,219.325640 606.120881,219.601588 606.120881,219.601588 607.283914,220.645141 608.750157,221.924081 610.215964,223.162176 610.215964,223.162176 610.215964,223.162176 610.984474,223.792650 610.984474,223.792650 611.682207,224.355429 613.148013,225.504938 614.613820,226.607645 614.907418,226.822304 614.907418,226.822304 615.865544,227.512093 615.865544,227.512093 616.080063,227.663933 617.545869,228.673630 619.012113,229.633660 619.598435,230.003667 619.598435,230.003667 620.477919,230.543679 620.762342,230.714470 620.762342,230.714470 621.944162,231.404351 623.409969,232.212660 624.289452,232.671474 624.289452,232.671474 624.876212,232.967482 625.672684,233.355484 625.672684,233.355484 626.342018,233.669381 627.807825,234.317082 628.980907,234.797036 628.980907,234.797036 629.274068,234.911734 630.594823,235.400426 630.594823,235.400426 630.739874,235.451635 632.206117,235.936928 633.671924,236.367603 633.671924,236.367603 633.671924,236.367603 635.138167,236.740520 635.524825,236.829507 635.524825,236.829507 636.603973,237.056935 638.070217,237.313892 638.363378,237.358865 638.363378,237.358865 639.536023,237.515368 640.460945,237.611920 640.460945,237.611920 641.001829,237.658530 642.468073,237.744450 643.054395,237.763594 643.054395,237.763594 643.933879,237.773385 645.400122,237.745790 645.400122,237.745790 645.400122,237.745790 646.865929,237.661216 647.745413,237.582827 647.745413,237.582827 648.332172,237.517516 649.797978,237.314509 650.338863,237.226088 650.338863,237.226088 651.263785,237.055281 652.436867,236.805843 652.436867,236.805843 652.730028,236.738182 654.195834,236.365456 655.274982,236.055994 655.274982,236.055994 655.662078,235.937365 657.127884,235.451803 657.127884,235.451803 657.127884,235.451803 658.594127,234.911622 660.059934,234.317255 660.205422,234.255347 660.205422,234.255347 661.526177,233.667227 661.819338,233.531221 661.819338,233.531221 662.991983,232.964869 664.457790,232.208970 665.127124,231.846438 665.127124,231.846438 665.924033,231.401082 666.510355,231.063420 666.510355,231.063420 667.389839,230.542176 668.856082,229.633599 670.037903,228.863966 670.037903,228.863966 670.321889,228.674317 671.201810,228.075427 671.201810,228.075427 671.788132,227.666742 673.253938,226.611812 674.720182,225.509920 674.934701,225.344897 674.934701,225.344897 675.892827,224.595227 675.892827,224.595227 676.185988,224.362094 677.651794,223.170643 679.118038,221.935762 679.815770,221.332868 679.815770,221.332868 680.583844,220.658086 680.583844,220.658086 680.583844,220.658086 682.050087,219.340621 683.515894,217.983668 684.678927,216.879502 684.678927,216.879502 684.982137,216.587937 685.275298,216.304274 685.275298,216.304274 686.447943,215.155391 687.914187,213.688937 689.379993,212.188642 689.522423,212.040918 689.522423,212.040918 689.966316,211.579051 689.966316,211.579051 690.845799,210.655632 692.312043,209.092078 693.777849,207.499157 694.345385,206.875187 694.345385,206.875187 694.657770,206.529714 694.657770,206.529714 695.244092,205.877729 696.709899,204.230746 698.176142,202.559321 699.146064,201.440857 699.146064,201.440857 699.348787,201.205531 699.348787,201.205531 699.641948,200.864824 701.108192,199.148669 702.573998,197.412957 703.923588,195.799855 703.923588,195.799855 704.039804,195.659800 704.039804,195.659800 704.039804,195.659800 705.506048,193.890223 706.971854,192.106478 708.438097,190.310053 708.677519,190.015825 708.677519,190.015825 708.731258,189.949522 708.731258,189.949522 709.903904,188.503402 711.370147,186.687788 712.835953,184.864948 713.407421,184.152975 713.407421,184.152975 713.422276,184.134184 713.422276,184.134184 714.302196,183.036673 714.918228,182.267030 714.918228,182.267030 715.768003,181.204801 717.233809,179.371140 718.113293,178.271094 718.113293,178.271094 718.113730,178.270862 718.113730,178.270862 718.700052,177.537564 720.165859,175.706159 721.632102,173.878395 722.795572,172.431432 722.795572,172.431432 722.804747,172.420217 722.804747,172.420217 723.097908,172.056232 724.564152,170.241599 726.029958,168.435405 727.454696,166.690125 727.454696,166.690125 727.496201,166.639876 727.496201,166.639876 727.496201,166.639876 728.962008,164.857505 730.427814,163.088949 731.894057,161.336487 732.091100,161.101987 732.091100,161.101987 732.187219,160.988088 732.187219,160.988088 733.359864,159.603041 734.826107,157.888883 736.291913,156.196286 736.706096,155.722514 736.706096,155.722514 736.878236,155.525572 736.878236,155.525572 737.758157,154.526580 739.223963,152.881704 740.690206,151.261686 741.299685,150.595845 741.299685,150.595845 741.569690,150.303038 741.569690,150.303038 742.156013,149.670335 743.621819,148.109581 745.088062,146.579471 745.874049,145.771861 745.874049,145.771861 746.260707,145.378274 746.260707,145.378274 746.553869,145.081250 748.020112,143.618122 749.485918,142.189997 750.430500,141.288956 750.430500,141.288956 750.952161,140.797550 750.952161,140.797550 750.952161,140.797550 752.417968,139.443398 753.884211,138.130574 754.969476,137.184702 754.969476,137.184702 755.350017,136.858393 755.643179,136.609040 755.643179,136.609040 756.815824,135.627047 758.282067,134.438067 759.493596,133.490376 759.493596,133.490376 759.747873,133.295096 760.334196,132.849965 760.334196,132.849965 761.214117,132.196314 762.679923,131.145073 764.004173,130.236524 764.004173,130.236524 764.146166,130.141548 765.025650,129.562260 765.025650,129.562260 765.611973,129.185939 767.078216,128.280294 768.502954,127.448922 768.502954,127.448922 768.544022,127.425672 769.716667,126.778353 769.716667,126.778353 770.009829,126.621704 771.476072,125.869837 772.941878,125.172088 772.991685,125.149445 772.991685,125.149445 774.408122,124.527987 774.408122,124.527987 774.408122,124.527987 775.873928,123.939217 777.340171,123.404672 777.472116,123.359245 777.472116,123.359245 778.805978,122.926052 779.099139,122.836840 779.099139,122.836840 780.271784,122.503474 781.738027,122.134706 781.946430,122.086846 781.946430,122.086846 783.203834,121.824841 783.790593,121.715846 783.790593,121.715846 784.670077,121.570105 786.135883,121.373412 786.415937,121.342643 786.415937,121.342643 787.602127,121.235196 788.481610,121.178509 788.481610,121.178509 789.067933,121.152989 790.534176,121.128254 790.883261,121.130676 790.883261,121.130676 791.999983,121.163077 793.172628,121.230839"/>
</svg>
